<svg width="66" height="66" viewBox="0 0 66 66" fill="none" xmlns="http://www.w3.org/2000/svg">
<g clip-path="url(#clip0_3513_40)">
<path d="M60.5 19.25H41.25V13.75H60.5V19.25ZM65.2465 46.75C64.031 50.3168 59.6667 55 51.2187 55C42.7652 55 35.9177 50.2452 35.9177 39.3937C35.9177 28.6412 42.3115 23.1137 50.9492 23.1137C59.4247 23.1137 64.6002 28.0143 65.7305 35.2853C65.945 36.6768 66.0302 38.5522 65.9917 41.1702H43.9175C44.275 50.0005 53.4957 50.2782 56.5345 46.75H65.2465ZM44.11 35.75H57.7637C57.475 31.4957 54.6397 29.6478 50.952 29.6478C46.9205 29.6478 44.6902 31.7598 44.11 35.75ZM17.7815 54.967H0V13.8077H19.1207C34.1797 14.0305 34.4657 28.7788 26.6007 32.7993C36.1185 36.2643 36.4375 54.967 17.7815 54.967ZM8.25 30.25H18.106C25.003 30.25 26.0975 22 17.248 22H8.25V30.25ZM17.5752 38.5H8.25V46.794H17.4377C25.839 46.794 25.3247 38.5 17.5752 38.5Z" fill="white"/>
</g>
<defs>
<clipPath id="clip0_3513_40">
<rect width="66" height="66" fill="white"/>
</clipPath>
</defs>
</svg>
