<svg width="26" height="26" viewBox="0 0 26 26" fill="none" xmlns="http://www.w3.org/2000/svg">
<rect x="5.03198" y="5.31763" width="15.4527" height="15.4527" rx="7.72633" fill="white"/>
<rect x="2.71408" y="2.99973" width="20.0884" height="20.0884" rx="10.0442" stroke="white" stroke-opacity="0.3" stroke-width="4.6358"/>
<path d="M12.1237 9.64674C12.0801 9.63696 12.0349 9.63638 11.991 9.64505C11.9471 9.65371 11.9055 9.67142 11.8688 9.69705C11.8322 9.72268 11.8013 9.75566 11.7781 9.7939C11.7549 9.83214 11.7399 9.8748 11.7341 9.91915C11.7283 9.9635 11.7318 10.0086 11.7444 10.0515C11.7569 10.0944 11.7783 10.1343 11.8072 10.1685C11.836 10.2027 11.8716 10.2305 11.9118 10.2501C11.952 10.2698 11.9958 10.2809 12.0405 10.2826L15.2865 10.7093L9.22309 15.3696C9.16031 15.4234 9.12054 15.4992 9.11199 15.5815C9.10345 15.6637 9.12676 15.7461 9.17714 15.8116C9.22752 15.8772 9.30113 15.9209 9.38278 15.9338C9.46444 15.9467 9.54794 15.9278 9.61606 15.8809L15.6795 11.2206L15.2521 14.4671C15.2431 14.5511 15.2668 14.6353 15.3183 14.7023C15.3697 14.7692 15.445 14.8138 15.5285 14.8267C15.5703 14.8322 15.6127 14.8294 15.6534 14.8185C15.6941 14.8076 15.7322 14.7888 15.7656 14.7631C15.799 14.7375 15.827 14.7055 15.848 14.6689C15.8691 14.6324 15.8826 14.5921 15.888 14.5503L16.4139 10.5314C16.4202 10.4896 16.4179 10.4469 16.4073 10.4059C16.3967 10.3649 16.378 10.3265 16.3522 10.2929C16.3264 10.2593 16.2941 10.2313 16.2572 10.2105C16.2203 10.1897 16.1796 10.1766 16.1375 10.1719L12.1237 9.64674Z" fill="#0B0B0B"/>
</svg>
