<svg width="16" height="16" viewBox="0 0 16 16" fill="none" xmlns="http://www.w3.org/2000/svg">
<path d="M5.86303 0.170196C5.76215 0.16106 5.66047 0.173046 5.56447 0.205387C5.46848 0.237728 5.38028 0.289716 5.30549 0.358037C5.2307 0.426358 5.17097 0.509512 5.1301 0.602198C5.08924 0.694884 5.06813 0.795068 5.06813 0.896364C5.06813 0.997659 5.08924 1.09784 5.1301 1.19053C5.17097 1.28322 5.2307 1.36637 5.30549 1.43469C5.38028 1.50301 5.46848 1.555 5.56447 1.58734C5.66047 1.61968 5.76215 1.63167 5.86303 1.62253L13.2772 1.62689L1.0311 13.873C0.905921 14.0122 0.838905 14.1941 0.843866 14.3813C0.848828 14.5684 0.925388 14.7466 1.05777 14.8789C1.19015 15.0113 1.36827 15.0879 1.55543 15.0928C1.74258 15.0978 1.9245 15.0308 2.06372 14.9056L14.3098 2.6595L14.304 10.0751C14.3084 10.2663 14.3863 10.4485 14.5216 10.5837C14.6568 10.719 14.839 10.7969 15.0302 10.8013C15.1256 10.8015 15.2201 10.7828 15.3082 10.7463C15.3964 10.7099 15.4765 10.6564 15.544 10.5889C15.6115 10.5215 15.6649 10.4414 15.7014 10.3532C15.7378 10.265 15.7565 10.1705 15.7563 10.0751L15.7563 0.896364C15.7582 0.800499 15.7406 0.705251 15.7048 0.616322C15.6689 0.527394 15.6155 0.446612 15.5477 0.378813C15.4799 0.311015 15.3991 0.257593 15.3102 0.221747C15.2213 0.1859 15.126 0.168367 15.0302 0.170196L5.86303 0.170196Z" fill="#F4F4F4"/>
</svg>
