<svg width="47" height="47" viewBox="0 0 47 47" fill="none" xmlns="http://www.w3.org/2000/svg">
<g clip-path="url(#clip0_3513_42)">
<path d="M46.3299 18.6898C46.0177 17.1844 45.5588 15.7156 44.9529 14.2836C44.3654 12.8883 43.631 11.5664 42.7865 10.318C41.942 9.06953 40.9873 7.93125 39.9408 6.86641C38.876 5.80156 37.701 4.82851 36.4892 4.0207C35.2408 3.17617 33.8822 2.4418 32.5236 1.8543C31.1099 1.24844 29.6412 0.789454 28.1174 0.477345C26.5752 0.165235 24.9963 0 23.399 0C21.8017 0 20.2228 0.165235 18.6806 0.477345C17.1752 0.789454 15.7064 1.24844 14.2927 1.8543C12.8974 2.4418 11.5756 3.17617 10.3271 4.0207C9.07869 4.86523 7.92204 5.81992 6.87556 6.86641C5.82908 7.91289 4.85603 9.10625 4.02986 10.318C3.18533 11.5664 2.45095 12.8883 1.86345 14.2836C1.25759 15.6973 0.79861 17.166 0.4865 18.6898C0.174391 20.232 0.00915527 21.8109 0.00915527 23.4082C0.00915527 25.0055 0.174391 26.5844 0.4865 28.1266C0.79861 29.632 1.25759 31.1008 1.86345 32.5145C2.45095 33.9098 3.18533 35.2316 4.02986 36.4984C4.87439 37.7469 5.82908 38.8852 6.87556 39.95C7.9404 41.0148 9.1154 41.9695 10.3271 42.7957C11.5756 43.6402 12.9342 44.3746 14.2927 44.9621C15.7064 45.568 17.1752 46.027 18.6806 46.3391C20.2228 46.6512 21.8017 46.8164 23.399 46.8164C24.9963 46.8164 26.5568 46.6512 28.1174 46.3391C29.6228 46.027 31.0916 45.568 32.5236 44.9621C33.9189 44.3746 35.2408 43.6402 36.4892 42.7957C37.7377 41.9512 38.8943 40.9965 39.9408 39.95C41.0056 38.8852 41.9603 37.7102 42.7865 36.4984C43.631 35.25 44.3654 33.9098 44.9529 32.5145C45.5588 31.1008 46.0177 29.632 46.3299 28.1266C46.642 26.5844 46.8072 25.0055 46.8072 23.4082C46.8072 21.8109 46.642 20.232 46.3299 18.6898ZM23.399 3.41484C28.4662 3.41484 33.0744 5.30586 36.5994 8.40859C36.5443 8.48203 33.717 12.8148 26.1529 15.6422C22.7381 9.36328 18.9744 4.36953 18.6623 3.96563C20.1861 3.6168 21.765 3.41484 23.399 3.41484ZM18.5705 4.00234C18.5888 3.98398 18.5705 3.98398 18.5705 4.00234ZM14.8619 5.32422C15.1373 5.67305 18.8275 10.7035 22.2974 16.8539C12.6955 19.3875 4.36033 19.2957 3.84626 19.2773C5.11306 13.0902 9.28064 7.94961 14.8619 5.32422ZM8.50955 36.7555C5.33337 33.2305 3.38728 28.5488 3.38728 23.4082C3.38728 23.1879 3.40564 22.9859 3.40564 22.784C3.75447 22.784 13.6318 23.0227 23.9314 19.9383C24.5006 21.0582 25.0513 22.2148 25.5654 23.3348C25.3084 23.4082 25.033 23.4816 24.776 23.5734C13.9806 27.0617 8.50955 36.7555 8.50955 36.7555ZM23.399 43.4016C18.7357 43.4016 14.4947 41.8043 11.0982 39.1605C11.1717 39.0137 15.0455 30.7703 26.7955 26.6762C26.8322 26.6578 26.8873 26.6395 26.924 26.6395C29.733 33.9465 30.8896 40.0602 31.1834 41.8227C28.7967 42.8324 26.1529 43.4016 23.399 43.4016ZM34.5615 39.9867C34.3595 38.775 33.2947 32.9184 30.6693 25.7031C37.1318 24.675 42.7314 26.4375 43.1353 26.5844C42.2541 32.1473 39.0412 36.9574 34.5615 39.9867ZM29.4576 22.5453C29.3107 22.1965 29.1638 21.866 29.017 21.5172C28.5947 20.5258 28.1541 19.5711 27.6767 18.6164C35.5713 15.4035 38.7842 10.7586 38.8209 10.7035C41.6115 14.1184 43.3189 18.4695 43.374 23.2062C43.0986 23.1512 36.324 21.6824 29.4576 22.5453Z" fill="#0B0B0B"/>
</g>
<defs>
<clipPath id="clip0_3513_42">
<rect width="47" height="47" fill="white"/>
</clipPath>
</defs>
</svg>
