<svg width="78" height="77" viewBox="0 0 78 77" fill="none" xmlns="http://www.w3.org/2000/svg">
<mask id="path-1-inside-1_2562_697" fill="white">
<path d="M76.998 12.1992L77.1523 12.3535L76.998 12.5068V17.4697H76.9961V76.998H59.5254V29.9795L12.5049 77L0.152344 64.6475L47.3291 17.4697H0V0H76.998V12.1992Z"/>
</mask>
<path d="M76.998 12.1992H75.998V12.6134L76.2909 12.9063L76.998 12.1992ZM77.1523 12.3535L77.8572 13.0629L78.5688 12.3558L77.8595 11.6464L77.1523 12.3535ZM76.998 12.5068L76.2932 11.7975L75.998 12.0908V12.5068H76.998ZM76.998 17.4697V18.4697H77.998V17.4697H76.998ZM76.9961 17.4697V16.4697H75.9961V17.4697H76.9961ZM76.9961 76.998V77.998H77.9961V76.998H76.9961ZM59.5254 76.998H58.5254V77.998H59.5254V76.998ZM59.5254 29.9795H60.5254V27.5653L58.8183 29.2724L59.5254 29.9795ZM12.5049 77L11.7978 77.7071L12.5049 78.4142L13.212 77.7071L12.5049 77ZM0.152344 64.6475L-0.55477 63.9404L-1.26186 64.6475L-0.554763 65.3546L0.152344 64.6475ZM47.3291 17.4697L48.0362 18.1768L49.7433 16.4697H47.3291V17.4697ZM0 17.4697H-1V18.4697H0V17.4697ZM0 0V-1H-1V0H0ZM76.998 0H77.998V-1H76.998V0ZM76.998 12.1992L76.2909 12.9063L76.4452 13.0606L77.1523 12.3535L77.8595 11.6464L77.7052 11.4921L76.998 12.1992ZM77.1523 12.3535L76.4475 11.6442L76.2932 11.7975L76.998 12.5068L77.7029 13.2162L77.8572 13.0629L77.1523 12.3535ZM76.998 12.5068H75.998V17.4697H76.998H77.998V12.5068H76.998ZM76.998 17.4697V16.4697H76.9961V17.4697V18.4697H76.998V17.4697ZM76.9961 17.4697H75.9961V76.998H76.9961H77.9961V17.4697H76.9961ZM76.9961 76.998V75.998H59.5254V76.998V77.998H76.9961V76.998ZM59.5254 76.998H60.5254V29.9795H59.5254H58.5254V76.998H59.5254ZM59.5254 29.9795L58.8183 29.2724L11.7978 76.2929L12.5049 77L13.212 77.7071L60.2325 30.6866L59.5254 29.9795ZM12.5049 77L13.212 76.2929L0.859451 63.9404L0.152344 64.6475L-0.554763 65.3546L11.7978 77.7071L12.5049 77ZM0.152344 64.6475L0.859458 65.3546L48.0362 18.1768L47.3291 17.4697L46.622 16.7626L-0.55477 63.9404L0.152344 64.6475ZM47.3291 17.4697V16.4697H0V17.4697V18.4697H47.3291V17.4697ZM0 17.4697H1V0H0H-1V17.4697H0ZM0 0V1H76.998V0V-1H0V0ZM76.998 0H75.998V12.1992H76.998H77.998V0H76.998Z" fill="#EFEDEC" mask="url(#path-1-inside-1_2562_697)"/>
</svg>
