<svg width="1728" height="277" viewBox="0 0 1728 277" fill="none" xmlns="http://www.w3.org/2000/svg">
<path d="M1085.17 207.04H1062.88V230.189H1085.17V207.04Z" fill="#101011"/>
<path d="M1129.16 207.04H1106.86V230.189H1129.16V207.04Z" fill="#101011"/>
<path d="M1151.45 207.04H1129.15V230.189H1151.45V207.04Z" fill="#101011"/>
<path d="M1173.75 207.04H1151.45V230.189H1173.75V207.04Z" fill="#101011"/>
<path d="M1196.04 207.04H1173.75V230.189H1196.04V207.04Z" fill="#101011"/>
<path d="M1240.02 207.04H1217.73V230.189H1240.02V207.04Z" fill="#101011"/>
<path d="M1262.32 229.864H1240.02V253.013H1262.32V229.864Z" fill="#101011"/>
<path d="M1284.61 207.04H1262.32V230.189H1284.61V207.04Z" fill="#101011"/>
<path d="M1327.99 207.04H1305.7V230.189H1327.99V207.04Z" fill="#101011"/>
<path d="M1350.29 207.04H1327.99V230.189H1350.29V207.04Z" fill="#101011"/>
<path d="M1372.58 184.216H1350.29V207.365H1372.58V184.216Z" fill="#101011"/>
<path d="M1416.57 184.216H1394.88V207.365H1416.57V184.216Z" fill="#101011"/>
<path d="M1438.86 184.216H1416.57V207.365H1438.86V184.216Z" fill="#101011"/>
<path d="M1461.16 207.04H1438.86V230.189H1461.16V207.04Z" fill="#101011"/>
<path d="M1417.06 207.04H1394.77V230.189H1417.06V207.04Z" fill="#101011"/>
<path d="M1395.08 207.04H1372.79V230.189H1395.08V207.04Z" fill="#101011"/>
<path d="M1483.45 184.216H1461.16V207.365H1483.45V184.216Z" fill="#101011"/>
<path d="M1505.74 184.216H1483.45V207.365H1505.74V184.216Z" fill="#101011"/>
<path d="M1549.73 184.216H1527.43V207.365H1549.73V184.216Z" fill="#101011"/>
<path d="M1572.02 161.392H1549.73V184.541H1572.02V161.392Z" fill="#101011"/>
<path d="M1616 161.392H1594.31V184.541H1616V161.392Z" fill="#101011"/>
<path d="M1660.59 138.568H1638.3V161.717H1660.59V138.568Z" fill="#101011"/>
<path d="M1682.89 138.568H1660.59V161.717H1682.89V138.568Z" fill="#101011"/>
<path d="M1705.18 138.568H1682.89V161.717H1705.18V138.568Z" fill="#101011"/>
<path d="M1726.87 138.568H1705.18V161.717H1726.87V138.568Z" fill="#101011"/>
<path d="M1085.17 114.495H1062.88V137.645H1085.17V114.495Z" fill="#101011"/>
<path d="M1040.72 91.2959H1018.42V114.445H1040.72V91.2959Z" fill="#101011"/>
<path d="M1040.72 114.308H1018.42V137.457H1040.72V114.308Z" fill="#101011"/>
<path d="M1151.52 68.4719H1129.23V91.6212H1151.52V68.4719Z" fill="#101011"/>
<path d="M1174.69 91.4837H1152.4V114.633H1174.69V91.4837Z" fill="#101011"/>
<path d="M1107.2 68.4719H1084.91V91.6212H1107.2V68.4719Z" fill="#101011"/>
<path d="M1220.02 91.4837H1197.73V114.633H1220.02V91.4837Z" fill="#101011"/>
<path d="M1284.49 68.4719H1262.2V91.6212H1284.49V68.4719Z" fill="#101011"/>
<path d="M1371.13 45.6479H1348.83V68.7972H1371.13V45.6479Z" fill="#101011"/>
<path d="M1417.46 45.6479H1395.17V68.7972H1417.46V45.6479Z" fill="#101011"/>
<path d="M1461.79 91.4837H1439.49V114.633H1461.79V91.4837Z" fill="#101011"/>
<path d="M1461.79 114.495H1439.49V137.645H1461.79V114.495Z" fill="#101011"/>
<path d="M1593.74 45.8358H1571.45V68.985H1593.74V45.8358Z" fill="#101011"/>
<path d="M1593.74 22.824H1571.45V45.9732H1593.74V22.824Z" fill="#101011"/>
<path d="M1638.07 22.824H1615.78V45.9732H1638.07V22.824Z" fill="#101011"/>
<path d="M1704.55 23.0118H1682.26V46.1611H1704.55V23.0118Z" fill="#101011"/>
<path d="M1727.72 0H1705.43V23.1493H1727.72V0Z" fill="#101011"/>
<path d="M1506.11 45.6479H1483.81V68.7972H1506.11V45.6479Z" fill="#101011"/>
<path d="M1129.16 114.495H1106.86V137.645H1129.16V114.495Z" fill="#101011"/>
<path d="M1196.04 114.495H1173.75V137.645H1196.04V114.495Z" fill="#101011"/>
<path d="M1262.32 137.319H1240.02V160.469H1262.32V137.319Z" fill="#101011"/>
<path d="M1305.7 114.495H1284.61V137.645H1305.7V114.495Z" fill="#101011"/>
<path d="M1350.29 114.495H1327.99V137.645H1350.29V114.495Z" fill="#101011"/>
<path d="M1394.87 91.6715H1372.58V114.821H1394.87V91.6715Z" fill="#101011"/>
<path d="M1527.43 91.6715H1505.74V114.821H1527.43V91.6715Z" fill="#101011"/>
<path d="M1527.43 68.6597H1505.74V91.809H1527.43V68.6597Z" fill="#101011"/>
<path d="M1572.02 68.8475H1549.73V91.9968H1572.02V68.8475Z" fill="#101011"/>
<path d="M1638.31 68.8475H1616.01V91.9968H1638.31V68.8475Z" fill="#101011"/>
<path d="M1682.89 46.0236H1660.59V69.1728H1682.89V46.0236Z" fill="#101011"/>
<path d="M1106.86 137.645H1085.17V160.794H1106.86V137.645Z" fill="#101011"/>
<path d="M1173.75 137.645H1151.45V160.794H1173.75V137.645Z" fill="#101011"/>
<path d="M1217.73 137.645H1196.04V160.794H1217.73V137.645Z" fill="#101011"/>
<path d="M1305.7 137.645H1284.61V160.794H1305.7V137.645Z" fill="#101011"/>
<path d="M1372.58 114.821H1350.29V137.97H1372.58V114.821Z" fill="#101011"/>
<path d="M1416.57 114.821H1394.88V137.97H1416.57V114.821Z" fill="#101011"/>
<path d="M1483.45 114.821H1461.16V137.97H1483.45V114.821Z" fill="#101011"/>
<path d="M1505.74 114.821H1483.45V137.97H1505.74V114.821Z" fill="#101011"/>
<path d="M1527.43 114.821H1505.74V137.97H1527.43V114.821Z" fill="#101011"/>
<path d="M1572.02 91.9968H1549.73V115.146H1572.02V91.9968Z" fill="#101011"/>
<path d="M1616 91.9968H1594.31V115.146H1616V91.9968Z" fill="#101011"/>
<path d="M1638.31 91.9968H1616.01V115.146H1638.31V91.9968Z" fill="#101011"/>
<path d="M1682.89 69.1729H1660.59V92.3221H1682.89V69.1729Z" fill="#101011"/>
<path d="M1705.18 69.1729H1682.89V92.3221H1705.18V69.1729Z" fill="#101011"/>
<path d="M1062.88 183.618H1040.58V206.767H1062.88V183.618Z" fill="#101011"/>
<path d="M1085.17 160.794H1062.88V183.943H1085.17V160.794Z" fill="#101011"/>
<path d="M1106.86 160.794H1085.17V183.943H1106.86V160.794Z" fill="#101011"/>
<path d="M1151.45 160.794H1129.15V183.943H1151.45V160.794Z" fill="#101011"/>
<path d="M1173.75 160.794H1151.45V183.943H1173.75V160.794Z" fill="#101011"/>
<path d="M1196.04 160.794H1173.75V183.943H1196.04V160.794Z" fill="#101011"/>
<path d="M1217.73 160.794H1196.04V183.943H1217.73V160.794Z" fill="#101011"/>
<path d="M1262.32 183.618H1240.02V206.767H1262.32V183.618Z" fill="#101011"/>
<path d="M1284.61 160.794H1262.32V183.943H1284.61V160.794Z" fill="#101011"/>
<path d="M1305.7 160.794H1284.61V183.943H1305.7V160.794Z" fill="#101011"/>
<path d="M1327.99 160.794H1305.7V183.943H1327.99V160.794Z" fill="#101011"/>
<path d="M1350.29 160.794H1327.99V183.943H1350.29V160.794Z" fill="#101011"/>
<path d="M1372.58 137.97H1350.29V161.119H1372.58V137.97Z" fill="#101011"/>
<path d="M1416.57 137.97H1394.88V161.119H1416.57V137.97Z" fill="#101011"/>
<path d="M1438.86 137.97H1416.57V161.119H1438.86V137.97Z" fill="#101011"/>
<path d="M1461.16 160.794H1438.86V183.943H1461.16V160.794Z" fill="#101011"/>
<path d="M1505.74 137.97H1483.45V161.119H1505.74V137.97Z" fill="#101011"/>
<path d="M1549.73 137.97H1527.43V161.119H1549.73V137.97Z" fill="#101011"/>
<path d="M1572.02 115.146H1549.73V138.295H1572.02V115.146Z" fill="#101011"/>
<path d="M1594.32 115.146H1572.02V138.295H1594.32V115.146Z" fill="#101011"/>
<path d="M1638.31 115.146H1616.01V138.295H1638.31V115.146Z" fill="#101011"/>
<path d="M1660.59 92.3221H1638.3V115.471H1660.59V92.3221Z" fill="#101011"/>
<path d="M1726.87 92.3221H1705.18V115.471H1726.87V92.3221Z" fill="#101011"/>
<path d="M1062.88 206.767H1040.58V229.916H1062.88V206.767Z" fill="#101011"/>
<path d="M1106.86 183.943H1085.17V207.093H1106.86V183.943Z" fill="#101011"/>
<path d="M1129.16 183.943H1106.86V207.093H1129.16V183.943Z" fill="#101011"/>
<path d="M1151.45 183.943H1129.15V207.093H1151.45V183.943Z" fill="#101011"/>
<path d="M1196.04 183.943H1173.75V207.093H1196.04V183.943Z" fill="#101011"/>
<path d="M1217.73 183.943H1196.04V207.093H1217.73V183.943Z" fill="#101011"/>
<path d="M1240.02 183.943H1217.73V207.093H1240.02V183.943Z" fill="#101011"/>
<path d="M1262.32 206.767H1240.02V229.916H1262.32V206.767Z" fill="#101011"/>
<path d="M1284.61 183.943H1262.32V207.093H1284.61V183.943Z" fill="#101011"/>
<path d="M1327.99 183.943H1305.7V207.093H1327.99V183.943Z" fill="#101011"/>
<path d="M1372.58 161.119H1350.29V184.269H1372.58V161.119Z" fill="#101011"/>
<path d="M1394.87 161.119H1372.58V184.269H1394.87V161.119Z" fill="#101011"/>
<path d="M1416.57 161.119H1394.88V184.269H1416.57V161.119Z" fill="#101011"/>
<path d="M1461.16 183.943H1438.86V207.093H1461.16V183.943Z" fill="#101011"/>
<path d="M1483.45 161.119H1461.16V184.269H1483.45V161.119Z" fill="#101011"/>
<path d="M1527.43 161.119H1505.74V184.269H1527.43V161.119Z" fill="#101011"/>
<path d="M1549.73 161.119H1527.43V184.269H1549.73V161.119Z" fill="#101011"/>
<path d="M1594.32 138.295H1572.02V161.445H1594.32V138.295Z" fill="#101011"/>
<path d="M1616 138.295H1594.31V161.445H1616V138.295Z" fill="#101011"/>
<path d="M1660.59 115.471H1638.3V138.621H1660.59V115.471Z" fill="#101011"/>
<path d="M1682.89 115.471H1660.59V138.621H1682.89V115.471Z" fill="#101011"/>
<path d="M1705.18 115.471H1682.89V138.621H1705.18V115.471Z" fill="#101011"/>
<path d="M1726.87 115.471H1705.18V138.621H1726.87V115.471Z" fill="#101011"/>
<path d="M642.173 253.725H619.879V276.875H642.173V253.725Z" fill="#101011"/>
<path d="M664.466 253.725H642.172V276.875H664.466V253.725Z" fill="#101011"/>
<path d="M686.763 253.725H664.469V276.875H686.763V253.725Z" fill="#101011"/>
<path d="M708.453 253.725H686.762V276.875H708.453V253.725Z" fill="#101011"/>
<path d="M753.04 253.725H730.746V276.875H753.04V253.725Z" fill="#101011"/>
<path d="M775.337 253.725H753.043V276.875H775.337V253.725Z" fill="#101011"/>
<path d="M797.63 253.725H775.336V276.875H797.63V253.725Z" fill="#101011"/>
<path d="M818.718 253.725H797.629V276.875H818.718V253.725Z" fill="#101011"/>
<path d="M841.009 253.725H818.715V276.875H841.009V253.725Z" fill="#101011"/>
<path d="M885.599 253.725H863.305V276.875H885.599V253.725Z" fill="#101011"/>
<path d="M907.293 253.725H885.602V276.875H907.293V253.725Z" fill="#101011"/>
<path d="M929.583 253.725H907.289V276.875H929.583V253.725Z" fill="#101011"/>
<path d="M951.876 253.725H929.582V276.875H951.876V253.725Z" fill="#101011"/>
<path d="M974.173 253.725H951.879V276.875H974.173V253.725Z" fill="#101011"/>
<path d="M1018.16 253.725H996.465V276.875H1018.16V253.725Z" fill="#101011"/>
<path d="M1040.45 253.725H1018.16V276.875H1040.45V253.725Z" fill="#101011"/>
<path d="M1726.48 230.315H1041.09V277H1726.48V230.315Z" fill="#101011"/>
<path d="M1726.48 198.154H1461.71V277H1726.48V198.154Z" fill="#101011"/>
<path d="M1726.48 176.367H1549.64V277H1726.48V176.367Z" fill="#101011"/>
<path d="M1726.48 153.543H1615.58V277H1726.48V153.543Z" fill="#101011"/>
<path d="M66.7509 206.829H44.457V229.978H66.7509V206.829Z" fill="#101011"/>
<path d="M22.2939 160.805H0V183.954H22.2939V160.805Z" fill="#101011"/>
<path d="M22.2939 183.817H0V206.966H22.2939V183.817Z" fill="#101011"/>
<path d="M133.103 160.805H110.809V183.954H133.103V160.805Z" fill="#101011"/>
<path d="M156.27 183.817H133.977V206.966H156.27V183.817Z" fill="#101011"/>
<path d="M88.7783 160.805H66.4844V183.954H88.7783V160.805Z" fill="#101011"/>
<path d="M201.599 183.817H179.305V206.966H201.599V183.817Z" fill="#101011"/>
<path d="M266.071 160.805H243.777V183.954H266.071V160.805Z" fill="#101011"/>
<path d="M352.704 160.805H330.41V183.954H352.704V160.805Z" fill="#101011"/>
<path d="M399.04 160.805H376.746V183.954H399.04V160.805Z" fill="#101011"/>
<path d="M443.368 183.817H421.074V206.966H443.368V183.817Z" fill="#101011"/>
<path d="M443.368 206.829H421.074V229.978H443.368V206.829Z" fill="#101011"/>
<path d="M575.325 160.993H553.031V184.142H575.325V160.993Z" fill="#101011"/>
<path d="M575.325 137.981H553.031V161.131H575.325V137.981Z" fill="#101011"/>
<path d="M619.649 115.157H597.355V138.307H619.649V115.157Z" fill="#101011"/>
<path d="M686.13 138.169H663.836V161.318H686.13V138.169Z" fill="#101011"/>
<path d="M709.302 115.157H687.008V138.307H709.302V115.157Z" fill="#101011"/>
<path d="M753.622 115.157H731.328V138.307H753.622V115.157Z" fill="#101011"/>
<path d="M841.263 138.169H818.969V161.318H841.263V138.169Z" fill="#101011"/>
<path d="M841.263 115.157H818.969V138.307H841.263V115.157Z" fill="#101011"/>
<path d="M908.755 138.169H886.461V161.318H908.755V138.169Z" fill="#101011"/>
<path d="M952.067 115.157H929.773V138.307H952.067V115.157Z" fill="#101011"/>
<path d="M996.395 138.169H974.102V161.318H996.395V138.169Z" fill="#101011"/>
<path d="M952.067 138.169H929.773V161.318H952.067V138.169Z" fill="#101011"/>
<path d="M487.685 137.981H465.391V161.131H487.685V137.981Z" fill="#101011"/>
<path d="M110.735 206.829H88.4414V229.978H110.735V206.829Z" fill="#101011"/>
<path d="M177.614 206.829H155.32V229.978H177.614V206.829Z" fill="#101011"/>
<path d="M243.895 206.829H221.602V229.978H243.895V206.829Z" fill="#101011"/>
<path d="M287.28 206.829H266.191V229.978H287.28V206.829Z" fill="#101011"/>
<path d="M331.864 206.829H309.57V229.978H331.864V206.829Z" fill="#101011"/>
<path d="M376.454 206.829H354.16V229.978H376.454V206.829Z" fill="#101011"/>
<path d="M509.012 184.005H487.32V207.154H509.012V184.005Z" fill="#101011"/>
<path d="M509.012 160.993H487.32V184.142H509.012V160.993Z" fill="#101011"/>
<path d="M553.599 184.005H531.305V207.154H553.599V184.005Z" fill="#101011"/>
<path d="M619.88 161.181H597.586V184.33H619.88V161.181Z" fill="#101011"/>
<path d="M664.466 161.181H642.172V184.33H664.466V161.181Z" fill="#101011"/>
<path d="M753.622 161.181H731.328V184.33H753.622V161.181Z" fill="#101011"/>
<path d="M775.337 161.181H753.043V184.33H775.337V161.181Z" fill="#101011"/>
<path d="M818.718 161.181H797.629V184.33H818.718V161.181Z" fill="#101011"/>
<path d="M885.599 161.181H863.305V184.33H885.599V161.181Z" fill="#101011"/>
<path d="M974.173 161.181H951.879V184.33H974.173V161.181Z" fill="#101011"/>
<path d="M1040.72 161.181H1018.42V184.33H1040.72V161.181Z" fill="#101011"/>
<path d="M88.4414 229.978H66.75V253.127H88.4414V229.978Z" fill="#101011"/>
<path d="M155.321 229.978H133.027V253.127H155.321V229.978Z" fill="#101011"/>
<path d="M199.301 229.978H177.609V253.127H199.301V229.978Z" fill="#101011"/>
<path d="M287.28 229.978H266.191V253.127H287.28V229.978Z" fill="#101011"/>
<path d="M354.161 229.978H331.867V253.127H354.161V229.978Z" fill="#101011"/>
<path d="M398.145 229.978H376.453V253.127H398.145V229.978Z" fill="#101011"/>
<path d="M465.028 229.978H442.734V253.127H465.028V229.978Z" fill="#101011"/>
<path d="M487.321 207.154H465.027V230.303H487.321V207.154Z" fill="#101011"/>
<path d="M509.012 207.154H487.32V230.303H509.012V207.154Z" fill="#101011"/>
<path d="M553.599 207.154H531.305V230.303H553.599V207.154Z" fill="#101011"/>
<path d="M597.582 207.154H575.891V230.303H597.582V207.154Z" fill="#101011"/>
<path d="M619.88 184.33H597.586V207.479H619.88V184.33Z" fill="#101011"/>
<path d="M664.466 184.33H642.172V207.479H664.466V184.33Z" fill="#101011"/>
<path d="M686.763 184.33H664.469V207.479H686.763V184.33Z" fill="#101011"/>
<path d="M730.747 184.33H708.453V207.479H730.747V184.33Z" fill="#101011"/>
<path d="M797.63 184.33H775.336V207.479H797.63V184.33Z" fill="#101011"/>
<path d="M841.009 184.33H818.715V207.479H841.009V184.33Z" fill="#101011"/>
<path d="M907.293 184.33H885.602V207.479H907.293V184.33Z" fill="#101011"/>
<path d="M951.876 184.33H929.582V207.479H951.876V184.33Z" fill="#101011"/>
<path d="M996.466 184.33H974.172V207.479H996.466V184.33Z" fill="#101011"/>
<path d="M1018.16 184.33H996.465V207.479H1018.16V184.33Z" fill="#101011"/>
<path d="M44.4541 253.127H22.1602V276.277H44.4541V253.127Z" fill="#101011"/>
<path d="M22.2939 229.841H0V252.99H22.2939V229.841Z" fill="#101011"/>
<path d="M66.7509 253.127H44.457V276.277H66.7509V253.127Z" fill="#101011"/>
<path d="M88.4414 253.127H66.75V276.277H88.4414V253.127Z" fill="#101011"/>
<path d="M133.028 253.127H110.734V276.277H133.028V253.127Z" fill="#101011"/>
<path d="M155.321 253.127H133.027V276.277H155.321V253.127Z" fill="#101011"/>
<path d="M177.614 253.127H155.32V276.277H177.614V253.127Z" fill="#101011"/>
<path d="M199.301 253.127H177.609V276.277H199.301V253.127Z" fill="#101011"/>
<path d="M243.895 253.127H221.602V276.277H243.895V253.127Z" fill="#101011"/>
<path d="M266.188 253.127H243.895V276.277H266.188V253.127Z" fill="#101011"/>
<path d="M287.28 253.127H266.191V276.277H287.28V253.127Z" fill="#101011"/>
<path d="M309.571 253.127H287.277V276.277H309.571V253.127Z" fill="#101011"/>
<path d="M331.864 253.127H309.57V276.277H331.864V253.127Z" fill="#101011"/>
<path d="M354.161 253.127H331.867V276.277H354.161V253.127Z" fill="#101011"/>
<path d="M398.145 253.127H376.453V276.277H398.145V253.127Z" fill="#101011"/>
<path d="M420.442 253.127H398.148V276.277H420.442V253.127Z" fill="#101011"/>
<path d="M442.735 253.127H420.441V276.277H442.735V253.127Z" fill="#101011"/>
<path d="M487.321 230.303H465.027V253.453H487.321V230.303Z" fill="#101011"/>
<path d="M531.31 230.303H509.016V253.453H531.31V230.303Z" fill="#101011"/>
<path d="M553.599 230.303H531.305V253.453H553.599V230.303Z" fill="#101011"/>
<path d="M575.895 230.303H553.602V253.453H575.895V230.303Z" fill="#101011"/>
<path d="M619.88 207.479H597.586V230.629H619.88V207.479Z" fill="#101011"/>
<path d="M642.173 207.479H619.879V230.629H642.173V207.479Z" fill="#101011"/>
<path d="M708.453 207.479H686.762V230.629H708.453V207.479Z" fill="#101011"/>
<path d="M730.747 207.479H708.453V230.629H730.747V207.479Z" fill="#101011"/>
<path d="M775.337 207.479H753.043V230.629H775.337V207.479Z" fill="#101011"/>
<path d="M797.63 207.479H775.336V230.629H797.63V207.479Z" fill="#101011"/>
<path d="M841.009 207.479H818.715V230.629H841.009V207.479Z" fill="#101011"/>
<path d="M863.31 207.479H841.016V230.629H863.31V207.479Z" fill="#101011"/>
<path d="M885.599 207.479H863.305V230.629H885.599V207.479Z" fill="#101011"/>
<path d="M907.293 207.479H885.602V230.629H907.293V207.479Z" fill="#101011"/>
<path d="M929.583 207.479H907.289V230.629H929.583V207.479Z" fill="#101011"/>
<path d="M974.173 207.479H951.879V230.629H974.173V207.479Z" fill="#101011"/>
<path d="M1018.16 207.479H996.465V230.629H1018.16V207.479Z" fill="#101011"/>
<path d="M1040.45 207.479H1018.16V230.629H1040.45V207.479Z" fill="#101011"/>
<path d="M1062.75 207.479H1040.45V230.629H1062.75V207.479Z" fill="#101011"/>
<path d="M509.012 253.453H487.32V276.602H509.012V253.453Z" fill="#101011"/>
<path d="M531.31 253.453H509.016V276.602H531.31V253.453Z" fill="#101011"/>
<path d="M575.895 253.453H553.602V276.602H575.895V253.453Z" fill="#101011"/>
<path d="M597.582 253.453H575.891V276.602H597.582V253.453Z" fill="#101011"/>
<path d="M642.173 230.629H619.879V253.778H642.173V230.629Z" fill="#101011"/>
<path d="M664.466 230.629H642.172V253.778H664.466V230.629Z" fill="#101011"/>
<path d="M686.763 230.629H664.469V253.778H686.763V230.629Z" fill="#101011"/>
<path d="M708.453 230.629H686.762V253.778H708.453V230.629Z" fill="#101011"/>
<path d="M753.04 230.629H730.746V253.778H753.04V230.629Z" fill="#101011"/>
<path d="M775.337 230.629H753.043V253.778H775.337V230.629Z" fill="#101011"/>
<path d="M797.63 230.629H775.336V253.778H797.63V230.629Z" fill="#101011"/>
<path d="M818.718 230.629H797.629V253.778H818.718V230.629Z" fill="#101011"/>
<path d="M841.009 230.629H818.715V253.778H841.009V230.629Z" fill="#101011"/>
<path d="M885.599 230.629H863.305V253.778H885.599V230.629Z" fill="#101011"/>
<path d="M907.293 230.629H885.602V253.778H907.293V230.629Z" fill="#101011"/>
<path d="M951.876 230.629H929.582V253.778H951.876V230.629Z" fill="#101011"/>
<path d="M974.173 230.629H951.879V253.778H974.173V230.629Z" fill="#101011"/>
<path d="M996.466 230.629H974.172V253.778H996.466V230.629Z" fill="#101011"/>
<path d="M1018.16 230.629H996.465V253.778H1018.16V230.629Z" fill="#101011"/>
<path d="M1062.75 230.629H1040.45V253.778H1062.75V230.629Z" fill="#101011"/>
</svg>
