<svg width="143" height="73" viewBox="0 0 143 73" fill="none" xmlns="http://www.w3.org/2000/svg">
<path d="M17.4667 0H17.4303C8.08966 0 0.517578 7.57612 0.517578 16.9217V16.9581C0.517578 26.3037 8.08966 33.8799 17.4303 33.8799H17.4667C26.8073 33.8799 34.3794 26.3037 34.3794 16.9581V16.9217C34.3794 7.57612 26.8073 0 17.4667 0Z" fill="#F40352"/>
<path d="M83.9181 27.5479L43.073 68.3056C40.0542 71.326 35.9442 73 31.6887 73C17.322 73 10.1205 55.6052 20.3045 45.4521L31.907 33.8799L35.6532 30.1316L61.1496 4.69442C64.1684 1.67398 68.242 0 72.5339 0C86.9006 0 94.1021 17.3948 83.9181 27.5479Z" fill="#F40352"/>
<path d="M137.966 27.5479L97.1208 68.3056C94.102 71.326 89.992 73 85.7366 73C71.3699 73 64.1683 55.6052 74.3523 45.4521L85.9548 33.8799L89.7011 30.1316L115.197 4.69442C118.216 1.67398 122.29 0 126.582 0C140.948 0 148.15 17.3948 137.966 27.5479Z" fill="#F40352"/>
</svg>
