<svg width="17" height="17" viewBox="0 0 17 17" fill="none" xmlns="http://www.w3.org/2000/svg">
<path d="M9.03711 0C9.27894 0 9.40011 -0.000343871 9.50293 0.0214844C9.85411 0.0961772 10.1388 0.354263 10.248 0.696289C10.2799 0.796364 10.2914 0.916858 10.3154 1.15723C10.3609 1.61229 10.3841 1.84022 10.4453 1.98242C10.6596 2.47927 11.2306 2.71558 11.7334 2.51562C11.8772 2.45833 12.0543 2.31301 12.4082 2.02344C12.5957 1.87001 12.6896 1.79334 12.7832 1.74512C13.1021 1.58074 13.4851 1.59962 13.7861 1.79492C13.8744 1.85222 13.9597 1.93826 14.1309 2.10938L14.8906 2.86914C15.0615 3.04005 15.1469 3.12573 15.2041 3.21387C15.3996 3.51504 15.4186 3.89772 15.2539 4.2168C15.2057 4.31027 15.1289 4.40451 14.9756 4.5918C14.686 4.94543 14.5416 5.12278 14.4844 5.2666C14.2844 5.76947 14.5206 6.34044 15.0176 6.55469C15.1598 6.61585 15.3878 6.63806 15.8428 6.68359C16.0838 6.70772 16.2044 6.7199 16.3047 6.75195C16.6463 6.86122 16.9037 7.14529 16.9785 7.49609C17.0004 7.59906 17 7.72064 17 7.96289V9.03711C17 9.27888 17.0003 9.40015 16.9785 9.50293C16.9039 9.85422 16.6458 10.1389 16.3037 10.248C16.2037 10.2799 16.0831 10.2914 15.8428 10.3154C15.388 10.3608 15.1607 10.3841 15.0186 10.4453C14.5213 10.6595 14.2851 11.2303 14.4854 11.7334C14.5426 11.8771 14.6872 12.0546 14.9766 12.4082C15.1296 12.5951 15.2067 12.6889 15.2549 12.7822C15.4193 13.1013 15.3996 13.4841 15.2041 13.7852C15.1469 13.8733 15.0616 13.9589 14.8906 14.1299L14.1309 14.8896C13.9597 15.0608 13.8744 15.1468 13.7861 15.2041C13.4851 15.3994 13.1021 15.4183 12.7832 15.2539C12.6896 15.2057 12.5957 15.129 12.4082 14.9756C12.0539 14.6857 11.8765 14.5406 11.7324 14.4834C11.2297 14.2839 10.6595 14.52 10.4453 15.0166C10.3839 15.1589 10.3609 15.3872 10.3154 15.8428C10.2914 16.0836 10.2801 16.2044 10.248 16.3047C10.1388 16.6465 9.85389 16.9038 9.50293 16.9785C9.40008 17.0003 9.2789 17 9.03711 17H7.96289C7.72062 17 7.59909 17.0004 7.49609 16.9785C7.14533 16.9038 6.86133 16.6462 6.75195 16.3047C6.71991 16.2045 6.70779 16.0838 6.68359 15.8428C6.63789 15.3875 6.61499 15.1597 6.55371 15.0176C6.33936 14.5206 5.76849 14.2842 5.26562 14.4844C5.12186 14.5416 4.94539 14.6871 4.5918 14.9766C4.40459 15.1298 4.31022 15.2057 4.2168 15.2539C3.89769 15.4186 3.51505 15.3997 3.21387 15.2041C3.12574 15.1469 3.04008 15.0616 2.86914 14.8906L2.10938 14.1309C1.93826 13.9597 1.85222 13.8744 1.79492 13.7861C1.59962 13.4851 1.58074 13.1021 1.74512 12.7832C1.79334 12.6896 1.87001 12.5957 2.02344 12.4082C2.31301 12.0543 2.45833 11.8772 2.51562 11.7334C2.71558 11.2306 2.47927 10.6596 1.98242 10.4453C1.84022 10.3841 1.61229 10.3609 1.15723 10.3154C0.916858 10.2914 0.796364 10.2799 0.696289 10.248C0.354263 10.1388 0.0961772 9.85411 0.0214844 9.50293C-0.000343871 9.40011 0 9.27893 0 9.03711V7.96289C0 7.72072 -0.000425096 7.59903 0.0214844 7.49609C0.0962711 7.14528 0.353642 6.86122 0.695312 6.75195C0.795555 6.7199 0.916211 6.70772 1.15723 6.68359C1.61235 6.63803 1.84018 6.61598 1.98242 6.55469C2.47929 6.34043 2.7155 5.7694 2.51562 5.2666C2.45838 5.12267 2.31316 4.94579 2.02344 4.5918C1.87009 4.40443 1.79335 4.3103 1.74512 4.2168C1.5807 3.89782 1.60051 3.51489 1.7959 3.21387C1.85316 3.12576 1.93849 3.04003 2.10938 2.86914L2.86914 2.10938C3.04029 1.93823 3.12563 1.85221 3.21387 1.79492C3.51486 1.59957 3.89784 1.58073 4.2168 1.74512C4.31034 1.79334 4.40434 1.87008 4.5918 2.02344C4.94581 2.31305 5.12267 2.45842 5.2666 2.51562C5.76929 2.71536 6.34036 2.47905 6.55469 1.98242C6.61602 1.84021 6.63803 1.6122 6.68359 1.15723C6.70772 0.916347 6.71991 0.795523 6.75195 0.695312C6.86122 0.353638 7.14527 0.0962638 7.49609 0.0214844C7.599 -0.000410488 7.72081 0 7.96289 0H9.03711ZM8.5 5.09961C6.62223 5.09961 5.09961 6.62223 5.09961 8.5C5.09961 10.3778 6.62223 11.9004 8.5 11.9004C10.3778 11.9004 11.9004 10.3778 11.9004 8.5C11.9004 6.62223 10.3778 5.09961 8.5 5.09961Z" fill="#141416"/>
</svg>
