<svg width="17" height="17" viewBox="0 0 17 17" fill="none" xmlns="http://www.w3.org/2000/svg">
<path d="M8.5 0C13.1944 0 17 3.80558 17 8.5C17 13.1944 13.1944 17 8.5 17C3.80558 17 0 13.1944 0 8.5C0 3.80558 3.80558 0 8.5 0ZM6.7168 9.5C6.79942 11.0686 7.06883 12.4429 7.44727 13.4521C7.67709 14.065 7.92692 14.4917 8.15332 14.7471C8.26375 14.8716 8.35284 14.9374 8.41211 14.9697C8.46655 14.9994 8.49287 15 8.5 15C8.50713 15 8.53345 14.9994 8.58789 14.9697C8.64716 14.9374 8.73625 14.8716 8.84668 14.7471C9.07308 14.4917 9.32291 14.065 9.55273 13.4521C9.93117 12.4429 10.2006 11.0686 10.2832 9.5H6.7168ZM2.07715 9.5C2.40683 11.6348 3.77478 13.4265 5.64941 14.3428C5.62446 14.2804 5.59901 14.2178 5.5752 14.1543C5.10199 12.8924 4.79617 11.2723 4.71191 9.5H2.07715ZM12.2881 9.5C12.2038 11.2723 11.898 12.8924 11.4248 14.1543C11.4009 14.2179 11.3746 14.2803 11.3496 14.3428C13.2246 13.4266 14.5931 11.6351 14.9229 9.5H12.2881ZM11.4248 2.8457C11.898 4.10758 12.2038 5.72775 12.2881 7.5H14.9229C14.5931 5.36472 13.2248 3.57239 11.3496 2.65625C11.3747 2.71903 11.4008 2.78179 11.4248 2.8457ZM8.5 2C8.49287 2 8.46655 2.00057 8.41211 2.03027C8.35284 2.06264 8.26375 2.12838 8.15332 2.25293C7.92692 2.50835 7.67709 2.93497 7.44727 3.54785C7.06883 4.55706 6.79942 5.93136 6.7168 7.5H10.2832C10.2006 5.93136 9.93117 4.55706 9.55273 3.54785C9.32291 2.93497 9.07308 2.50835 8.84668 2.25293C8.73625 2.12838 8.64716 2.06264 8.58789 2.03027C8.53345 2.00057 8.50713 2 8.5 2ZM5.64941 2.65625C3.77459 3.57251 2.40685 5.36502 2.07715 7.5H4.71191C4.79617 5.72775 5.10199 4.10758 5.5752 2.8457C5.59912 2.78191 5.62435 2.71892 5.64941 2.65625Z" fill="#141416"/>
</svg>
