<svg width="16" height="17" viewBox="0 0 16 17" fill="none" xmlns="http://www.w3.org/2000/svg">
<path d="M6.71084 0.447214L1.78885 2.90821C1.00831 3.29848 0.618034 3.49362 0.618034 3.80264C0.618034 4.11165 1.00831 4.30679 1.78885 4.69706L6.71084 7.15806C7.14975 7.37751 7.3692 7.48724 7.60527 7.48724C7.84134 7.48724 8.06079 7.37751 8.4997 7.15806L13.4217 4.69706C14.2022 4.30679 14.5925 4.11165 14.5925 3.80264C14.5925 3.49362 14.2022 3.29848 13.4217 2.90821L8.4997 0.447214C8.06079 0.227761 7.84134 0.118034 7.60527 0.118034C7.3692 0.118034 7.14975 0.227761 6.71084 0.447214Z" fill="#141416"/>
<path fill-rule="evenodd" clip-rule="evenodd" d="M13.4219 7.66162C14.2024 8.05187 14.5927 8.24716 14.5928 8.55615C14.5928 8.86517 14.2024 9.06041 13.4219 9.45068L8.5 11.9116C8.06109 12.1311 7.84154 12.2407 7.60547 12.2407C7.3694 12.2407 7.14984 12.1311 6.71094 11.9116L1.78906 9.45068C1.00852 9.06041 0.618164 8.86517 0.618164 8.55615C0.618204 8.24716 1.00856 8.05187 1.78906 7.66162L2.88477 7.11377C3.53677 7.4722 4.32627 7.86773 5.25391 8.33154L5.81641 8.61279C6.6942 9.05169 7.13335 9.27099 7.60547 9.271C8.0776 9.271 8.51672 9.0517 9.39453 8.61279L9.95703 8.33154C10.8843 7.8679 11.6733 7.47209 12.3252 7.11377L13.4219 7.66162Z" fill="#141416"/>
<path fill-rule="evenodd" clip-rule="evenodd" d="M13.4219 12.415C14.2024 12.8053 14.5928 13.0006 14.5928 13.3096C14.5925 13.6184 14.2021 13.814 13.4219 14.2041L8.5 16.665C8.06115 16.8845 7.84152 16.9941 7.60547 16.9941C7.36942 16.9941 7.14978 16.8845 6.71094 16.665L1.78906 14.2041C1.00884 13.814 0.618486 13.6184 0.618164 13.3096C0.618164 13.0006 1.00858 12.8053 1.78906 12.415L2.88477 11.8672C3.53677 12.2256 4.32627 12.6211 5.25391 13.085L5.81641 13.3662C6.6942 13.8051 7.13335 14.0244 7.60547 14.0244C8.0776 14.0244 8.51672 13.8051 9.39453 13.3662L9.95703 13.085C10.8843 12.6213 11.6733 12.2255 12.3252 11.8672L13.4219 12.415Z" fill="#141416"/>
</svg>
