<?xml version="1.0" encoding="UTF-8"?>
<svg id="Livello_1" xmlns="http://www.w3.org/2000/svg" version="1.1" viewBox="0 0 288 47">
  <!-- Generator: Adobe Illustrator 29.6.1, SVG Export Plug-In . SVG Version: 2.1.1 Build 9)  -->
  <defs>
    <style>
      .st0 {
        fill: #0b0b0b;
      }

      .st1 {
        fill: #ef2d56;
      }
    </style>
  </defs>
  <path class="st1" d="M10.6.2h0C4.8.2,0,5,0,10.8h0c0,5.9,4.8,10.6,10.6,10.6h0c5.9,0,10.6-4.8,10.6-10.6h0C21.3,5,16.5.2,10.6.2Z"/>
  <path class="st1" d="M52.4,17.5l-25.6,25.6c-1.9,1.9-4.5,2.9-7.1,2.9-9,0-13.5-10.9-7.1-17.3l7.3-7.3,2.4-2.4L38.1,3.2c1.9-1.9,4.5-2.9,7.1-2.9,9,0,13.5,10.9,7.1,17.3Z"/>
  <path class="st1" d="M86.3,17.5l-25.6,25.6c-1.9,1.9-4.5,2.9-7.1,2.9-9,0-13.5-10.9-7.1-17.3l7.3-7.3,2.4-2.4,16-16c1.9-1.9,4.5-2.9,7.1-2.9,9,0,13.5,10.9,7.1,17.3Z"/>
  <path class="st0" d="M147.3,5.6l-8.9,26.1-3.6-9.6,6-16.5h-7.6l-3.6,11.4-3.6-11.4h-7.5l5.8,16.5-3.5,9.6-9-26.1h-8.9l14.1,35.5h6.9l5.6-13.9,5.7,13.9h6.8l14.2-35.5h-9Z"/>
  <path class="st0" d="M181.6,24.2c-.1-.5-.3-1-.5-1.5-.6-1.6-1.5-3.1-2.7-4.3-1.2-1.3-2.7-2.2-4.4-3-1.7-.7-3.7-1.1-5.9-1.1s-4.2.4-6,1.1c-1.8.7-3.2,1.7-4.4,3-1.2,1.3-2.1,2.7-2.8,4.4-.6,1.7-1,3.5-1,5.4s.3,3.5,1,5.1c.6,1.6,1.6,3,2.8,4.3,1.2,1.2,2.7,2.2,4.4,2.9,1.8.7,3.7,1.1,5.9,1.1s5.6-.6,7.8-1.9c2.2-1.3,3.8-3,4.8-5.1l-6.8-1.9c-.4,1-1.1,1.7-2.2,2.3-1.1.6-2.2.9-3.4.9s-2.8-.5-3.9-1.4c-1.2-.9-1.8-2.3-1.9-4h19.4c0-.3.1-.7.1-1.2,0-.5,0-.9,0-1.4,0-1.3-.2-2.5-.5-3.7ZM162.3,25.5c.2-1.6.8-2.9,1.8-3.9,1-1,2.3-1.5,3.9-1.5s2.8.5,3.9,1.4c1,1,1.6,2.3,1.8,4h-11.3Z"/>
  <path class="st0" d="M239.9,22.8c-.6-1.7-1.4-3.1-2.4-4.4-1-1.2-2.2-2.2-3.6-2.9-1.4-.7-2.9-1.1-4.6-1.1s-3.7.4-5.1,1.3c-1.4.9-2.6,2-3.5,3.5V4.6h-8v10.1c.3.3.7.7,1,1.1,1.3,1.6,2.3,3.5,3.1,5.7.7,2.1,1.1,4.4,1.1,6.7s-.4,4.7-1.2,6.8c-.8,2.1-1.9,4-3.4,5.6-.2.2-.4.4-.5.6h0c0,0,6.9,0,6.9,0v-4.4c.9,1.5,2.1,2.7,3.6,3.6,1.5.9,3.2,1.3,5.2,1.3s3.4-.3,4.8-1c1.5-.7,2.8-1.6,3.9-2.9,1.1-1.2,2-2.7,2.6-4.3.6-1.6.9-3.4.9-5.3s-.3-3.7-.8-5.4ZM232,30.8c-.3.8-.7,1.5-1.3,2.1-.6.6-1.2,1.1-2,1.4-.8.4-1.6.5-2.5.5s-2.2-.3-3.2-1c-1-.6-1.8-1.5-2.3-2.7v-5.5c.6-1.3,1.4-2.4,2.4-3.3,1.1-.9,2.2-1.3,3.5-1.3s1.6.2,2.4.6c.7.4,1.4.9,1.9,1.5.5.6.9,1.4,1.2,2.2.3.9.4,1.7.4,2.7s-.2,1.9-.5,2.7Z"/>
  <path class="st0" d="M257.8,34.1c-.4.2-.8.4-1.3.5-.5.1-.9.2-1.3.2-1.7,0-2.6-1-2.6-3V4.6h-8v30c0,2.3.6,4,1.8,5.2,1.2,1.2,3,1.8,5.3,1.8s2.3-.1,3.6-.4c1.3-.3,2.5-.6,3.4-1.1l-1-6Z"/>
  <path class="st0" d="M287.1,22.8c-.6-1.6-1.5-3.1-2.7-4.3-1.2-1.3-2.7-2.2-4.4-3-1.7-.7-3.7-1.1-6-1.1s-4.2.4-6,1.1c-1.8.7-3.2,1.7-4.4,3-1.2,1.3-2.1,2.7-2.8,4.4-.6,1.7-1,3.5-1,5.4s.3,3.5,1,5.1c.6,1.6,1.6,3,2.8,4.3,1.2,1.2,2.7,2.2,4.4,2.9,1.7.7,3.7,1.1,5.9,1.1s5.6-.6,7.8-1.9c2.2-1.3,3.8-3,4.8-5.1l-6.8-1.9c-.4,1-1.1,1.7-2.2,2.3-1.1.6-2.2.9-3.4.9s-2.8-.5-3.9-1.4c-1.1-.9-1.8-2.3-1.9-4h19.4c0-.3.1-.7.1-1.2,0-.5,0-.9,0-1.4,0-1.8-.3-3.5-.9-5.2ZM268.3,25.5c.2-1.6.8-2.9,1.8-3.9,1-1,2.3-1.5,3.9-1.5s2.8.5,3.9,1.4c1,1,1.6,2.3,1.8,4h-11.3Z"/>
  <path class="st0" d="M212.8,22.8c0-.1,0-.3-.1-.4-.6-1.5-1.3-2.9-2.2-4-1-1.2-2.2-2.2-3.6-2.9-1.4-.7-2.9-1.1-4.6-1.1s-3.7.4-5.1,1.3c-1.4.9-2.6,2-3.5,3.5V4.6h-8v36.5h7v-4.4c.9,1.5,2,2.7,3.5,3.6,1.5.9,3.2,1.3,5.2,1.3s3.4-.3,4.9-1c1.5-.7,2.8-1.6,3.9-2.9,1.1-1.2,1.9-2.6,2.5-4.1,0,0,0-.1,0-.2.6-1.6.9-3.4.9-5.3s-.3-3.7-.9-5.4ZM205,30.8c-.3.8-.8,1.5-1.3,2.1-.5.6-1.2,1.1-2,1.4-.8.4-1.6.5-2.6.5s-2.2-.3-3.2-1c-1-.6-1.8-1.5-2.3-2.7v-5.5c.6-1.3,1.4-2.4,2.4-3.3,1-.9,2.2-1.3,3.5-1.3s1.6.2,2.3.6c.7.4,1.4.9,1.9,1.5.5.6.9,1.4,1.2,2.2.3.9.4,1.7.4,2.7s-.2,1.9-.5,2.7Z"/>
</svg>