<svg xmlns="http://www.w3.org/2000/svg" width="288" height="47" viewBox="0 0 288 47" fill="none"><path d="M10.6436 0.204163H10.6207C4.75506 0.204163 0 4.96176 0 10.8306V10.8534C0 16.7222 4.75506 21.4798 10.6207 21.4798H10.6436C16.5092 21.4798 21.2643 16.7222 21.2643 10.8534V10.8306C21.2643 4.96176 16.5092 0.204163 10.6436 0.204163Z" fill="#EF2D56"></path><path d="M52.3726 17.5035L26.723 43.0982C24.8272 44.995 22.2463 46.0462 19.5739 46.0462C10.552 46.0462 6.02967 35.1227 12.4249 28.7469L19.711 21.4798L22.0635 19.126L38.0746 3.15213C39.9703 1.25538 42.5284 0.204163 45.2236 0.204163C54.2455 0.204163 58.7679 11.1276 52.3726 17.5035Z" fill="#EF2D56"></path><path d="M86.313 17.5035L60.6634 43.0982C58.7676 44.995 56.1867 46.0462 53.5144 46.0462C44.4925 46.0462 39.9701 35.1227 46.3654 28.7469L53.6514 21.4798L56.004 19.126L72.015 3.15213C73.9107 1.25538 76.4689 0.204163 79.164 0.204163C88.1859 0.204163 92.7083 11.1276 86.313 17.5035Z" fill="#EF2D56"></path><path d="M147.289 5.61554L138.39 31.729L134.79 22.1744L140.74 5.66581H133.139L129.539 17.0212L125.94 5.66581H118.391L124.24 22.1744L120.741 31.729L111.79 5.61554H102.892L117.041 41.1351H123.941L129.539 27.2271L135.19 41.1351H142.04L156.24 5.61554H147.289Z" fill="#F4F4F4"></path><path d="M181.576 24.238C181.448 23.7421 181.293 23.2553 181.113 22.7754C180.496 21.1415 179.589 19.6995 178.388 18.4472C177.189 17.1971 175.72 16.2054 173.989 15.4718C172.255 14.7382 170.27 14.3703 168.039 14.3703C165.807 14.3703 163.813 14.7382 162.064 15.4718C160.314 16.2054 158.839 17.2063 157.64 18.4723C156.438 19.7406 155.522 21.2169 154.89 22.8988C154.255 24.5853 153.939 26.377 153.939 28.2783C153.939 30.0448 154.255 31.7382 154.89 33.3561C155.522 34.9741 156.447 36.3978 157.665 37.6318C158.88 38.8658 160.364 39.8416 162.114 40.5592C163.864 41.2745 165.839 41.6333 168.039 41.6333C171.072 41.6333 173.671 40.9843 175.839 39.684C178.004 38.3837 179.605 36.6994 180.637 34.6313L173.838 32.73C173.47 33.6966 172.746 34.4645 171.664 35.0312C170.581 35.5979 169.455 35.8813 168.288 35.8813C166.821 35.8813 165.513 35.4243 164.364 34.5056C163.213 33.5892 162.571 32.2478 162.438 30.479H181.839C181.905 30.1453 181.955 29.7523 181.987 29.3021C182.022 28.8519 182.038 28.3949 182.038 27.9264C182.038 26.6558 181.885 25.4263 181.576 24.238ZM162.288 25.5269C162.454 23.8929 163.046 22.5835 164.065 21.5985C165.081 20.6159 166.371 20.1245 167.938 20.1245C169.505 20.1245 170.754 20.6067 171.789 21.5734C172.822 22.5423 173.422 23.8586 173.589 25.5269H162.288Z" fill="#F4F4F4"></path><path d="M239.852 22.7504C239.286 21.0661 238.502 19.6059 237.502 18.3718C236.501 17.1401 235.302 16.1643 233.902 15.4467C232.502 14.7292 230.969 14.3704 229.302 14.3704C227.336 14.3704 225.627 14.7954 224.179 15.6455C222.729 16.4979 221.568 17.6726 220.703 19.174V4.61694H212.704V14.6857C213.044 15.0331 213.371 15.3987 213.682 15.7827C214.984 17.3892 216.011 19.2928 216.733 21.4386C217.441 23.5388 217.797 25.7897 217.797 28.1275C217.797 30.4654 217.4 32.7872 216.612 34.8964C215.815 37.0286 214.68 38.9185 213.239 40.5159C213.065 40.7078 212.885 40.8975 212.704 41.0803V41.1352H219.652V36.7818C220.52 38.3152 221.703 39.5081 223.204 40.3582C224.702 41.2083 226.452 41.6333 228.452 41.6333C230.186 41.6333 231.803 41.2928 233.301 40.6096C234.802 39.9263 236.102 38.9756 237.203 37.7576C238.303 36.5395 239.16 35.1067 239.777 33.4545C240.393 31.8045 240.702 30.0289 240.702 28.1275C240.702 26.2262 240.418 24.4346 239.852 22.7504ZM232.027 30.8036C231.709 31.6217 231.278 32.3301 230.727 32.9311C230.177 33.5299 229.519 34.0052 228.752 34.3548C227.987 34.7068 227.135 34.8804 226.203 34.8804C225.102 34.8804 224.044 34.5559 223.028 33.9046C222.012 33.2556 221.235 32.3644 220.703 31.2286V25.7258C221.269 24.4255 222.078 23.3422 223.128 22.4739C224.179 21.6077 225.335 21.1735 226.602 21.1735C227.436 21.1735 228.219 21.3587 228.953 21.7243C229.686 22.0922 230.309 22.5927 230.828 23.2257C231.344 23.8587 231.753 24.6014 232.052 25.4515C232.354 26.3016 232.502 27.1952 232.502 28.1275C232.502 29.0599 232.344 29.9877 232.027 30.8036Z" fill="#F4F4F4"></path><path d="M257.801 34.0806C257.401 34.3137 256.958 34.4897 256.476 34.6062C255.992 34.7228 255.551 34.7799 255.151 34.7799C253.45 34.7799 252.6 33.7812 252.6 31.7794V4.61694H244.602V34.5811C244.602 36.848 245.218 38.5826 246.452 39.7823C247.683 40.9843 249.451 41.5854 251.751 41.5854C252.883 41.5854 254.101 41.4505 255.4 41.1832C256.7 40.9181 257.851 40.5501 258.849 40.084L257.801 34.0806Z" fill="#F4F4F4"></path><path d="M287.073 22.7754C286.457 21.1415 285.55 19.6995 284.349 18.4472C283.149 17.1971 281.681 16.2054 279.95 15.4718C278.216 14.7382 276.233 14.3703 274 14.3703C271.766 14.3703 269.774 14.7382 268.025 15.4718C266.275 16.2054 264.8 17.2063 263.601 18.4723C262.399 19.7406 261.483 21.2169 260.851 22.8988C260.216 24.5853 259.9 26.377 259.9 28.2783C259.9 30.0448 260.216 31.7382 260.851 33.3561C261.483 34.9741 262.408 36.3978 263.626 37.6318C264.841 38.8658 266.325 39.8416 268.075 40.5592C269.824 41.2745 271.8 41.6333 274 41.6333C277.033 41.6333 279.632 40.9843 281.8 39.684C283.965 38.3837 285.566 36.6994 286.598 34.6313L279.799 32.73C279.433 33.6966 278.707 34.4645 277.624 35.0312C276.542 35.5979 275.416 35.8813 274.249 35.8813C272.782 35.8813 271.476 35.4243 270.325 34.5056C269.176 33.5892 268.532 32.2478 268.399 30.479H287.8C287.866 30.1453 287.916 29.7523 287.948 29.3021C287.982 28.8519 287.999 28.3949 287.999 27.9264C287.999 26.1256 287.69 24.4094 287.073 22.7754ZM268.251 25.5269C268.415 23.8929 269.007 22.5835 270.025 21.5985C271.042 20.6159 272.332 20.1245 273.899 20.1245C275.466 20.1245 276.715 20.6067 277.75 21.5734C278.782 22.5423 279.383 23.8586 279.55 25.5269H268.251Z" fill="#F4F4F4"></path><path d="M212.836 22.7504C212.793 22.6224 212.75 22.4967 212.704 22.3733C212.151 20.8468 211.411 19.5122 210.486 18.3718C209.488 17.1401 208.287 16.1643 206.887 15.4467C205.486 14.7292 203.954 14.3704 202.287 14.3704C200.32 14.3704 198.612 14.7954 197.163 15.6455C195.713 16.4979 194.555 17.6726 193.687 19.174V4.61694H185.688V41.1352H192.639V36.7818C193.504 38.3152 194.688 39.5081 196.188 40.3582C197.689 41.2083 199.438 41.6333 201.437 41.6333C203.17 41.6333 204.788 41.2928 206.288 40.6096C207.786 39.9263 209.088 38.9756 210.187 37.7576C211.254 36.5784 212.09 35.1958 212.704 33.6098C212.725 33.5573 212.743 33.507 212.763 33.4545C213.378 31.8045 213.686 30.0289 213.686 28.1275C213.686 26.2262 213.403 24.4346 212.836 22.7504ZM205.014 30.8036C204.696 31.6217 204.262 32.3301 203.712 32.9311C203.164 33.5299 202.503 34.0052 201.738 34.3548C200.971 34.7068 200.121 34.8804 199.187 34.8804C198.088 34.8804 197.029 34.5559 196.012 33.9046C194.996 33.2556 194.222 32.3644 193.687 31.2286V25.7258C194.254 24.4255 195.062 23.3422 196.113 22.4739C197.163 21.6077 198.319 21.1735 199.587 21.1735C200.42 21.1735 201.204 21.3587 201.937 21.7243C202.67 22.0922 203.296 22.5927 203.812 23.2257C204.328 23.8587 204.737 24.6014 205.039 25.4515C205.338 26.3016 205.486 27.1952 205.486 28.1275C205.486 29.0599 205.329 29.9877 205.014 30.8036Z" fill="#F4F4F4"></path></svg>