<?xml version="1.0" encoding="UTF-8"?>
<svg id="Livello_1" xmlns="http://www.w3.org/2000/svg" version="1.1" viewBox="0 0 969.9 52.7">
  <!-- Generator: Adobe Illustrator 29.6.1, SVG Export Plug-In . SVG Version: 2.1.1 Build 9)  -->
  <defs>
    <style>
      .st0 {
        fill: #0b0b0b;
      }
    </style>
  </defs>
  <path class="st0" d="M1.2,51.7V.8h8v50.9H1.2Z"/>
  <path class="st0" d="M28.7,15.7v36h-8V.8h6.6l28.8,36.8V.8h8.1v50.8h-7L28.7,15.7Z"/>
  <path class="st0" d="M75.7,51.7V.8h33.9v7.1h-25.9v15.2h21.7v6.7h-21.7v21.9s-8,0-8,0Z"/>
  <path class="st0" d="M137.5,52c-3.7,0-7-.7-10-2.2-3-1.4-5.5-3.4-7.7-5.8-2.2-2.5-3.8-5.2-5-8.3s-1.8-6.3-1.8-9.5.6-6.6,1.9-9.7c1.2-3.1,3-5.8,5.2-8.2,2.2-2.4,4.8-4.3,7.8-5.7,3-1.4,6.2-2.1,9.7-2.1s6.9.7,9.9,2.2c3,1.5,5.5,3.5,7.7,6,2.1,2.5,3.8,5.3,4.9,8.3,1.2,3.1,1.8,6.2,1.8,9.4s-.6,6.6-1.8,9.7-2.9,5.8-5.1,8.2c-2.2,2.4-4.8,4.3-7.8,5.7s-6.2,2.1-9.7,2.1h0ZM121.3,26.2c0,2.4.4,4.7,1.1,7,.8,2.2,1.9,4.2,3.3,6,1.4,1.7,3.1,3.1,5.1,4.1s4.3,1.5,6.7,1.5,4.9-.5,6.9-1.6,3.7-2.5,5.1-4.3c1.4-1.8,2.4-3.8,3.1-6,.7-2.2,1.1-4.5,1.1-6.7s-.4-4.7-1.1-6.9c-.7-2.2-1.8-4.2-3.3-6-1.4-1.7-3.1-3.1-5.1-4.1s-4.2-1.5-6.6-1.5-4.9.5-6.9,1.6-3.7,2.5-5.1,4.2c-1.4,1.8-2.5,3.8-3.2,6-.7,2.2-1.1,4.4-1.1,6.7Z"/>
  <path class="st0" d="M199.8-.4c3.5,0,6.8.6,10.1,1.8,3.2,1.2,6.1,2.9,8.6,5.2s4.5,5.1,5.9,8.5c1.5,3.4,2.2,7.3,2.2,11.8s0,1.6-.1,2.7c0,1.1-.2,2.3-.5,3.5-.2,1.2-.6,2.5-1.1,3.8s-1.1,2.5-1.9,3.5c-.8,1.1-1.8,1.9-3,2.5s-2.7,1-4.4,1-2.4-.2-3.2-.5c-.8-.4-1.5-.8-2-1.4s-.9-1.2-1.1-1.9c-.2-.7-.4-1.4-.5-2-1.5,1.5-3.3,2.7-5.4,3.5-2.1.9-4.4,1.3-6.8,1.3-3.6,0-6.3-.9-8.2-2.8-1.9-1.9-2.8-4.3-2.8-7.2s.4-3.6,1.2-4.9,1.8-2.4,3.1-3.2c1.3-.8,2.7-1.4,4.3-1.8s3.2-.5,4.8-.5,3.6.2,4.9.5c1.4.4,2.4.7,3.2,1,0-1.3-.1-2.5-.4-3.6-.2-1.1-.7-2-1.3-2.8s-1.5-1.4-2.5-1.8c-1.1-.4-2.4-.6-4-.6s-3.8.3-5.4.9c-1.6.6-3,1.3-4.2,2.3l-1.9-5.1c3.6-2.4,7.7-3.6,12.3-3.6s5.5.5,7.3,1.4c1.7,1,3,2.2,3.9,3.6.8,1.5,1.4,3.1,1.5,4.8.2,1.8.3,3.5.3,5.1v6.9c0,1.1,0,2.1.1,3,0,1,.2,1.8.5,2.6.2.7.6,1.3,1.1,1.8s1.1.7,2,.7c1.3,0,2.3-.5,3.1-1.4.8-1,1.4-2.1,1.9-3.5s.8-2.8.9-4.3c.1-1.5.2-2.7.2-3.7,0-3.3-.6-6.4-1.7-9.3-1.1-2.8-2.7-5.3-4.7-7.4-2-2.1-4.4-3.7-7.2-4.9-2.8-1.2-6-1.8-9.4-1.8s-6.5.6-9.3,1.7-5.2,2.7-7.2,4.8-3.6,4.4-4.7,7.2c-1.1,2.8-1.7,5.8-1.7,9.1s.5,6.2,1.6,9,2.5,5.2,4.5,7.3c1.9,2.1,4.3,3.7,7,4.9s5.8,1.8,9.1,1.8,4.3-.3,6-.8,3.4-1.2,5.2-2l1.1,3.7c-2,1-4.1,1.7-6.2,2.2-2.1.5-4.2.7-6.3.7-3.6,0-7-.6-10.1-1.9-3.2-1.3-5.9-3.1-8.3-5.5s-4.2-5.2-5.6-8.5c-1.4-3.3-2-7-2-11s.7-8,2.2-11.4c1.5-3.3,3.5-6.1,6-8.4,2.5-2.3,5.4-4,8.7-5.2,3.3-1.2,6.7-1.8,10.3-1.8v.4ZM203.4,36.6c1.3-.6,2.2-1.4,2.8-2.3.6-.9.9-1.9.9-3v-2.7c-.7-.2-1.7-.5-3.2-.9-1.4-.4-3.1-.6-4.9-.6s-4.1.4-5.5,1.3-2.2,2.3-2.2,4.4.5,2.9,1.5,3.9,2.4,1.4,4.3,1.4,2,0,3.2-.4c1.1-.2,2.2-.6,3.1-1.1h0Z"/>
  <g>
    <path class="st0" d="M253,1h7.5l6.3,17.3,6.4-17.3h7.5l-8.8,22.7,7.6,18.7L295.5.8h8.8l-20.9,50.9h-7l-9.5-22.8-9.6,22.8h-7L229.5.8h8.7l15.9,41.6,7.6-18.7-8.7-22.7Z"/>
    <path class="st0" d="M345.2,44.6v7.1h-34.9V.8h34.3v7.1h-26.2v14.5h22.7v6.7h-22.7v15.6h26.9,0Z"/>
    <path class="st0" d="M393.6,38.5c0,2.7-.7,5.1-2.1,7-1.4,2-3.3,3.5-5.7,4.5-2.4,1.1-5,1.6-7.9,1.6h-24.3V.8h26.2c2.4,0,4.5.6,6.2,1.9s3.1,2.9,4,4.9,1.4,4.1,1.4,6.2-.6,4.8-1.9,7c-1.3,2.2-3.1,3.8-5.4,4.8,2.9.9,5.2,2.4,6.9,4.7,1.7,2.3,2.5,5,2.5,8.3h0ZM361.6,7.7v15h14.8c1.3,0,2.5-.3,3.6-1,1.1-.6,1.9-1.5,2.5-2.7.6-1.1.9-2.4.9-3.8s-.3-2.8-.9-3.9-1.4-2-2.3-2.7c-1-.6-2.1-1-3.4-1h-15.2ZM385.3,37c0-1.4-.3-2.7-.9-3.9s-1.4-2.1-2.4-2.9c-1-.7-2.2-1.1-3.6-1.1h-16.8v15.6h16.3c1.4,0,2.7-.3,3.8-1,1.1-.7,2-1.6,2.7-2.8.6-1.2,1-2.4,1-3.8h-.1Z"/>
    <path class="st0" d="M442,38.5c0,2.7-.7,5.1-2.1,7-1.4,2-3.3,3.5-5.7,4.5-2.4,1.1-5,1.6-7.9,1.6h-24.3V.8h26.2c2.4,0,4.5.6,6.2,1.9s3.1,2.9,4,4.9,1.4,4.1,1.4,6.2-.6,4.8-1.9,7c-1.3,2.2-3.1,3.8-5.4,4.8,2.9.9,5.2,2.4,6.9,4.7,1.7,2.3,2.5,5,2.5,8.3h0ZM410,7.7v15h14.8c1.3,0,2.5-.3,3.6-1,1.1-.6,1.9-1.5,2.5-2.7.6-1.1.9-2.4.9-3.8s-.3-2.8-.9-3.9-1.4-2-2.3-2.7c-1-.6-2.1-1-3.4-1h-15.2ZM433.7,37c0-1.4-.3-2.7-.9-3.9s-1.4-2.1-2.4-2.9c-1-.7-2.2-1.1-3.6-1.1h-16.8v15.6h16.3c1.4,0,2.7-.3,3.8-1,1.1-.7,2-1.6,2.7-2.8.6-1.2,1-2.4,1-3.8h-.1Z"/>
    <path class="st0" d="M450.4,51.7V.8h8v43.8h27.3v7.1h-35.4.1Z"/>
    <path class="st0" d="M527.2,44.6v7.1h-34.9V.8h34.3v7.1h-26.3v14.5h22.7v6.7h-22.7v15.6h26.9,0Z"/>
    <path class="st0" d="M565.6,12.7c-.5-.5-1.2-1.1-2.1-1.7-.9-.6-2-1.2-3.2-1.7s-2.6-1-4-1.3-2.9-.5-4.4-.5c-3.3,0-5.8.6-7.5,1.9-1.6,1.2-2.4,3-2.4,5.1s.5,2.9,1.4,3.8,2.3,1.7,4.2,2.3c1.9.6,4.2,1.3,7,2,3.4.8,6.4,1.8,9,2.9,2.5,1.1,4.5,2.6,5.8,4.5s2,4.3,2,7.4-.5,4.8-1.4,6.6c-1,1.9-2.3,3.4-4,4.5-1.7,1.2-3.7,2-6,2.6-2.2.5-4.7.8-7.2.8s-5.1-.3-7.6-.8-4.9-1.3-7.2-2.3-4.4-2.3-6.3-3.8l3.7-6.9c.6.6,1.5,1.3,2.7,2s2.5,1.4,4.1,2.1c1.6.7,3.3,1.2,5.1,1.7s3.7.7,5.6.7c3.2,0,5.7-.6,7.4-1.7,1.7-1.1,2.5-2.7,2.5-4.8s-.5-3.1-1.6-4.1-2.7-1.9-4.8-2.6c-2.1-.7-4.6-1.4-7.5-2.1-3.3-.9-6.1-1.9-8.4-3-2.2-1.1-3.9-2.5-5.1-4.1-1.1-1.7-1.7-3.9-1.7-6.5s.8-6.2,2.4-8.5c1.6-2.3,3.8-4.1,6.6-5.2,2.8-1.2,5.9-1.8,9.4-1.8s4.5.3,6.5.8c2.1.5,4,1.2,5.8,2,1.8.9,3.4,1.8,4.9,2.9l-3.7,6.6v.2Z"/>
    <path class="st0" d="M616.7,7.9h-16.9v43.8h-8.1V7.9h-17V.8h42v7.1Z"/>
    <path class="st0" d="M644.7,52c-4.1,0-7.5-.7-10.3-2.1-2.8-1.4-5-3.3-6.7-5.7s-2.9-5.1-3.7-8.2c-.8-3.1-1.2-6.2-1.2-9.5V.8h8v25.8c0,2.3.2,4.6.7,6.8.5,2.2,1.2,4.1,2.3,5.8s2.5,3.1,4.3,4.1,4,1.5,6.6,1.5,4.9-.5,6.7-1.5,3.2-2.4,4.2-4.2c1-1.7,1.8-3.7,2.3-5.8.5-2.2.7-4.4.7-6.7V.8h8.1v25.8c0,3.5-.4,6.8-1.3,9.9-.8,3.1-2.1,5.8-3.9,8.1-1.7,2.3-4,4.1-6.8,5.5-2.8,1.3-6.1,2-10.1,2h.1Z"/>
    <path class="st0" d="M677.4,51.7V.8h18.1c5.5,0,10.1,1.1,13.8,3.4,3.7,2.3,6.4,5.3,8.3,9.2,1.8,3.8,2.8,8.1,2.8,12.8s-1,9.7-3,13.5-4.9,6.8-8.6,8.9c-3.7,2.1-8.1,3.2-13.1,3.2h-18.3ZM712.1,26.1c0-3.6-.7-6.8-2-9.5-1.3-2.7-3.2-4.9-5.7-6.5s-5.5-2.3-9-2.3h-10v36.7h10c3.6,0,6.6-.8,9.1-2.4,2.5-1.6,4.3-3.8,5.6-6.6s1.9-5.9,1.9-9.4h.1Z"/>
    <path class="st0" d="M728.8,51.7V.8h8v50.9h-8Z"/>
    <path class="st0" d="M769.4,52c-3.7,0-7-.7-10-2.2-3-1.4-5.5-3.4-7.7-5.8-2.2-2.5-3.8-5.2-5-8.3s-1.8-6.3-1.8-9.5.6-6.6,1.9-9.7c1.2-3.1,3-5.8,5.2-8.2,2.2-2.4,4.8-4.3,7.8-5.7,3-1.4,6.2-2.1,9.7-2.1s6.9.7,9.9,2.2c3,1.5,5.5,3.5,7.7,6,2.1,2.5,3.8,5.3,4.9,8.3,1.2,3.1,1.8,6.2,1.8,9.4s-.6,6.6-1.8,9.7-2.9,5.8-5.1,8.2c-2.2,2.4-4.8,4.3-7.8,5.7s-6.2,2.1-9.7,2.1h0ZM753.2,26.2c0,2.4.4,4.7,1.1,7,.8,2.2,1.9,4.2,3.3,6,1.4,1.7,3.1,3.1,5.1,4.1s4.3,1.5,6.7,1.5,4.9-.5,6.9-1.6,3.7-2.5,5.1-4.3c1.4-1.8,2.4-3.8,3.1-6,.7-2.2,1.1-4.5,1.1-6.7s-.4-4.7-1.1-6.9c-.7-2.2-1.8-4.2-3.3-6-1.4-1.7-3.1-3.1-5.1-4.1s-4.2-1.5-6.6-1.5-4.9.5-6.9,1.6-3.7,2.5-5.1,4.2c-1.4,1.8-2.5,3.8-3.2,6-.7,2.2-1.1,4.4-1.1,6.7Z"/>
    <path class="st0" d="M800.1,51.7v-9.2h6.5v9.2h-6.5Z"/>
    <path class="st0" d="M812.7,25.8c0-3.1.5-6.2,1.7-9.1,1.1-3,2.7-5.7,4.8-8.2s4.7-4.4,7.8-5.9,6.5-2.2,10.4-2.2,8.6,1,11.9,3.1c3.3,2.1,5.8,4.7,7.5,8l-6.3,4.2c-1-2.1-2.2-3.7-3.6-4.9-1.5-1.2-3-2-4.7-2.5s-3.4-.7-5-.7c-2.7,0-5,.5-7,1.6s-3.7,2.5-5.1,4.3c-1.4,1.8-2.4,3.8-3.1,6-.7,2.2-1,4.4-1,6.6s.4,4.8,1.2,7.1,1.9,4.3,3.4,6,3.2,3.1,5.2,4.1,4.2,1.5,6.6,1.5,3.3-.3,5.1-.9c1.8-.6,3.4-1.5,4.9-2.7s2.7-2.8,3.5-4.8l6.7,3.8c-1.1,2.5-2.7,4.7-4.9,6.5s-4.7,3.1-7.5,4-5.5,1.4-8.1,1.4-6.9-.8-9.8-2.3c-3-1.5-5.5-3.5-7.7-6s-3.8-5.3-5-8.5c-1.2-3.1-1.8-6.3-1.8-9.5h-.1Z"/>
    <path class="st0" d="M885.5,52c-3.7,0-7-.7-10-2.2-3-1.4-5.5-3.4-7.7-5.8-2.2-2.5-3.8-5.2-5-8.3s-1.8-6.3-1.8-9.5.6-6.6,1.9-9.7c1.2-3.1,3-5.8,5.2-8.2,2.2-2.4,4.8-4.3,7.8-5.7,3-1.4,6.2-2.1,9.7-2.1s6.9.7,9.9,2.2c3,1.5,5.5,3.5,7.7,6,2.1,2.5,3.8,5.3,4.9,8.3,1.2,3.1,1.8,6.2,1.8,9.4s-.6,6.6-1.8,9.7-2.9,5.8-5.1,8.2c-2.2,2.4-4.8,4.3-7.8,5.7s-6.2,2.1-9.7,2.1h0ZM869.3,26.2c0,2.4.4,4.7,1.1,7,.8,2.2,1.9,4.2,3.3,6,1.4,1.7,3.1,3.1,5.1,4.1s4.3,1.5,6.7,1.5,4.9-.5,6.9-1.6,3.7-2.5,5.1-4.3c1.4-1.8,2.4-3.8,3.1-6,.7-2.2,1.1-4.5,1.1-6.7s-.4-4.7-1.1-6.9c-.7-2.2-1.8-4.2-3.3-6-1.4-1.7-3.1-3.1-5.1-4.1s-4.2-1.5-6.6-1.5-4.9.5-6.9,1.6-3.7,2.5-5.1,4.2c-1.4,1.8-2.5,3.8-3.2,6-.7,2.2-1.1,4.4-1.1,6.7Z"/>
    <path class="st0" d="M961.1,51.7V15.4l-15,27.5h-4.7l-15.1-27.5v36.3h-8V.8h8.6l16.9,31.1,16.9-31.1h8.6v50.9h-8.2Z"/>
  </g>
</svg>