<svg width="57" height="30" viewBox="0 0 57 30" fill="none" xmlns="http://www.w3.org/2000/svg">
<path d="M6.76312 0H6.74861C3.02146 0 0 3.044 0 6.79897V6.81359C0 10.5686 3.02146 13.6126 6.74861 13.6126H6.76312C10.4903 13.6126 13.5117 10.5686 13.5117 6.81359V6.79897C13.5117 3.044 10.4903 0 6.76312 0Z" fill="#EF2D56"/>
<path d="M6.76312 0H6.74861C3.02146 0 0 3.044 0 6.79897V6.81359C0 10.5686 3.02146 13.6126 6.74861 13.6126H6.76312C10.4903 13.6126 13.5117 10.5686 13.5117 6.81359V6.79897C13.5117 3.044 10.4903 0 6.76312 0Z" fill="#F4F4F4"/>
<path d="M33.2786 11.0684L16.9803 27.4444C15.7757 28.658 14.1357 29.3306 12.4377 29.3306C6.705 29.3306 3.83139 22.3416 7.89507 18.2622L12.5248 13.6126L14.0196 12.1066L24.1933 1.88617C25.3979 0.672586 27.0234 0 28.7359 0C34.4686 0 37.3422 6.98905 33.2786 11.0684Z" fill="#EF2D56"/>
<path d="M33.2786 11.0684L16.9803 27.4444C15.7757 28.658 14.1357 29.3306 12.4377 29.3306C6.705 29.3306 3.83139 22.3416 7.89507 18.2622L12.5248 13.6126L14.0196 12.1066L24.1933 1.88617C25.3979 0.672586 27.0234 0 28.7359 0C34.4686 0 37.3422 6.98905 33.2786 11.0684Z" fill="#F4F4F4"/>
<path d="M54.8452 11.0684L38.547 27.4444C37.3424 28.658 35.7024 29.3306 34.0043 29.3306C28.2716 29.3306 25.398 22.3416 29.4617 18.2622L34.0914 13.6126L35.5863 12.1066L45.76 1.88617C46.9646 0.672586 48.59 0 50.3026 0C56.0353 0 58.9089 6.98905 54.8452 11.0684Z" fill="#EF2D56"/>
<path d="M54.8452 11.0684L38.547 27.4444C37.3424 28.658 35.7024 29.3306 34.0043 29.3306C28.2716 29.3306 25.398 22.3416 29.4617 18.2622L34.0914 13.6126L35.5863 12.1066L45.76 1.88617C46.9646 0.672586 48.59 0 50.3026 0C56.0353 0 58.9089 6.98905 54.8452 11.0684Z" fill="#F4F4F4"/>
</svg>
