<svg width="184" height="31" viewBox="0 0 184 31" fill="none" xmlns="http://www.w3.org/2000/svg">
<path d="M7.36322 0.935555H7.34871C3.62155 0.935555 0.600098 3.95862 0.600098 7.68777V7.70229C0.600098 11.4314 3.62155 14.4545 7.34871 14.4545H7.36322C11.0904 14.4545 14.1118 11.4314 14.1118 7.70229V7.68777C14.1118 3.95862 11.0904 0.935555 7.36322 0.935555Z" fill="#EF2D56"/>
<path d="M7.36322 0.935555H7.34871C3.62155 0.935555 0.600098 3.95862 0.600098 7.68777V7.70229C0.600098 11.4314 3.62155 14.4545 7.34871 14.4545H7.36322C11.0904 14.4545 14.1118 11.4314 14.1118 7.70229V7.68777C14.1118 3.95862 11.0904 0.935555 7.36322 0.935555Z" fill="#FAFAFA"/>
<path d="M33.8786 11.9279L17.5803 28.1913C16.3757 29.3965 14.7358 30.0644 13.0377 30.0644C7.30503 30.0644 4.43143 23.1235 8.49511 19.0721L13.1248 14.4545L14.6197 12.9588L24.7934 2.80875C25.998 1.60352 27.6234 0.935555 29.336 0.935555C35.0687 0.935555 37.9423 7.87654 33.8786 11.9279Z" fill="#EF2D56"/>
<path d="M33.8786 11.9279L17.5803 28.1913C16.3757 29.3965 14.7358 30.0644 13.0377 30.0644C7.30503 30.0644 4.43143 23.1235 8.49511 19.0721L13.1248 14.4545L14.6197 12.9588L24.7934 2.80875C25.998 1.60352 27.6234 0.935555 29.336 0.935555C35.0687 0.935555 37.9423 7.87654 33.8786 11.9279Z" fill="#FAFAFA"/>
<path d="M55.4452 11.9279L39.147 28.1913C37.9424 29.3965 36.3024 30.0644 34.6043 30.0644C28.8717 30.0644 25.998 23.1235 30.0617 19.0721L34.6914 14.4545L36.1863 12.9588L46.36 2.80875C47.5646 1.60352 49.1901 0.935555 50.9026 0.935555C56.6353 0.935555 59.5089 7.87654 55.4452 11.9279Z" fill="#EF2D56"/>
<path d="M55.4452 11.9279L39.147 28.1913C37.9424 29.3965 36.3024 30.0644 34.6043 30.0644C28.8717 30.0644 25.998 23.1235 30.0617 19.0721L34.6914 14.4545L36.1863 12.9588L46.36 2.80875C47.5646 1.60352 49.1901 0.935555 50.9026 0.935555C56.6353 0.935555 59.5089 7.87654 55.4452 11.9279Z" fill="#FAFAFA"/>
<path d="M94.1903 4.37406L88.5359 20.9671L86.2487 14.8959L90.0293 4.40601H85.1994L82.9121 11.6214L80.6248 4.40601H75.8282L79.5451 14.8959L77.3216 20.9671L71.6339 4.37406H65.9796L74.9705 26.9439H79.3549L82.9121 18.1065L86.5027 26.9439H90.8551L99.878 4.37406H94.1903Z" fill="#FAFAFA"/>
<path d="M115.978 16.2071C115.896 15.892 115.798 15.5827 115.683 15.2778C115.291 14.2395 114.715 13.3233 113.952 12.5275C113.19 11.7332 112.256 11.103 111.156 10.6369C110.055 10.1708 108.794 9.937 107.376 9.937C105.958 9.937 104.691 10.1708 103.579 10.6369C102.467 11.103 101.53 11.739 100.768 12.5435C100.004 13.3494 99.4224 14.2875 99.0204 15.3562C98.6169 16.4278 98.4166 17.5663 98.4166 18.7744C98.4166 19.8969 98.6169 20.9729 99.0204 22.001C99.4224 23.029 100.01 23.9337 100.784 24.7178C101.556 25.5019 102.499 26.122 103.611 26.5779C104.723 27.0324 105.978 27.2604 107.376 27.2604C109.303 27.2604 110.955 26.848 112.332 26.0218C113.708 25.1955 114.725 24.1254 115.381 22.8112L111.06 21.6031C110.827 22.2173 110.367 22.7052 109.679 23.0653C108.991 23.4255 108.275 23.6055 107.534 23.6055C106.602 23.6055 105.77 23.3151 105.04 22.7314C104.309 22.1491 103.901 21.2967 103.817 20.1728H116.144C116.187 19.9608 116.218 19.711 116.239 19.4249C116.261 19.1389 116.271 18.8485 116.271 18.5508C116.271 17.7434 116.173 16.9622 115.978 16.2071ZM103.721 17.0261C103.827 15.9879 104.203 15.1558 104.85 14.53C105.496 13.9056 106.316 13.5934 107.312 13.5934C108.307 13.5934 109.101 13.8998 109.759 14.514C110.415 15.1297 110.796 15.9661 110.902 17.0261H103.721Z" fill="#FAFAFA"/>
<path d="M153.007 15.2618C152.647 14.1917 152.149 13.2638 151.513 12.4796C150.878 11.697 150.116 11.0769 149.226 10.621C148.336 10.165 147.363 9.93704 146.303 9.93704C145.053 9.93704 143.968 10.2071 143.048 10.7473C142.126 11.2889 141.389 12.0353 140.839 12.9893V3.73952H135.756V10.1374C135.973 10.3581 136.18 10.5905 136.378 10.8344C137.205 11.8552 137.858 13.0648 138.316 14.4283C138.766 15.7628 138.993 17.1931 138.993 18.6786C138.993 20.1641 138.74 21.6394 138.24 22.9797C137.733 24.3345 137.012 25.5354 136.096 26.5504C135.986 26.6724 135.871 26.7929 135.756 26.909V26.9439H140.171V24.1777C140.723 25.152 141.475 25.91 142.428 26.4502C143.38 26.9904 144.492 27.2604 145.763 27.2604C146.865 27.2604 147.892 27.0441 148.844 26.6099C149.798 26.1757 150.624 25.5717 151.323 24.7977C152.023 24.0237 152.567 23.1133 152.959 22.0634C153.351 21.015 153.547 19.8867 153.547 18.6786C153.547 17.4705 153.367 16.332 153.007 15.2618ZM148.034 20.379C147.833 20.8989 147.558 21.349 147.209 21.7309C146.859 22.1113 146.441 22.4134 145.953 22.6355C145.467 22.8592 144.926 22.9695 144.334 22.9695C143.634 22.9695 142.962 22.7633 142.316 22.3495C141.67 21.9371 141.177 21.3708 140.839 20.6491V17.1525C141.199 16.3262 141.713 15.6379 142.38 15.0861C143.048 14.5358 143.782 14.2599 144.588 14.2599C145.117 14.2599 145.615 14.3775 146.081 14.6099C146.547 14.8436 146.943 15.1617 147.273 15.5639C147.601 15.9661 147.86 16.438 148.05 16.9782C148.242 17.5184 148.336 18.0862 148.336 18.6786C148.336 19.2711 148.236 19.8606 148.034 20.379Z" fill="#FAFAFA"/>
<path d="M164.412 22.4613C164.158 22.6094 163.877 22.7212 163.57 22.7953C163.263 22.8693 162.983 22.9056 162.729 22.9056C161.647 22.9056 161.107 22.2711 161.107 20.999V3.73952H156.025V22.7793C156.025 24.2198 156.417 25.3219 157.2 26.0843C157.983 26.8481 159.106 27.23 160.568 27.23C161.287 27.23 162.061 27.1443 162.887 26.9744C163.713 26.8059 164.444 26.5722 165.078 26.2759L164.412 22.4613Z" fill="#FAFAFA"/>
<path d="M183.012 15.2778C182.62 14.2395 182.044 13.3233 181.281 12.5275C180.519 11.7332 179.586 11.103 178.486 10.6369C177.384 10.1708 176.124 9.937 174.705 9.937C173.286 9.937 172.02 10.1708 170.908 10.6369C169.797 11.103 168.859 11.739 168.097 12.5435C167.334 13.3494 166.752 14.2875 166.35 15.3562C165.946 16.4278 165.746 17.5663 165.746 18.7744C165.746 19.8969 165.946 20.9729 166.35 22.001C166.752 23.029 167.34 23.9337 168.113 24.7178C168.885 25.5019 169.829 26.122 170.94 26.5779C172.052 27.0324 173.307 27.2604 174.705 27.2604C176.632 27.2604 178.284 26.848 179.661 26.0218C181.037 25.1955 182.054 24.1254 182.71 22.8112L178.39 21.6031C178.158 22.2173 177.696 22.7052 177.008 23.0653C176.32 23.4255 175.605 23.6055 174.863 23.6055C173.931 23.6055 173.101 23.3151 172.37 22.7314C171.64 22.1491 171.231 21.2967 171.146 20.1728H183.474C183.516 19.9608 183.548 19.711 183.568 19.4249C183.59 19.1389 183.6 18.8485 183.6 18.5508C183.6 17.4065 183.404 16.316 183.012 15.2778ZM171.052 17.0261C171.157 15.9879 171.532 15.1558 172.18 14.53C172.826 13.9056 173.646 13.5934 174.641 13.5934C175.637 13.5934 176.431 13.8998 177.088 14.514C177.744 15.1297 178.126 15.9661 178.232 17.0261H171.052Z" fill="#FAFAFA"/>
<path d="M135.841 15.2618C135.813 15.1805 135.785 15.1007 135.756 15.0223C135.405 14.0523 134.935 13.2042 134.347 12.4796C133.713 11.697 132.95 11.0769 132.06 10.621C131.17 10.165 130.196 9.93704 129.137 9.93704C127.887 9.93704 126.802 10.2071 125.882 10.7473C124.96 11.2889 124.224 12.0353 123.673 12.9893V3.73952H118.59V26.9439H123.007V24.1777C123.557 25.152 124.308 25.91 125.262 26.4502C126.216 26.9904 127.327 27.2604 128.597 27.2604C129.699 27.2604 130.726 27.0441 131.68 26.6099C132.632 26.1757 133.459 25.5717 134.157 24.7977C134.835 24.0484 135.366 23.1699 135.756 22.1622C135.77 22.1288 135.781 22.0968 135.794 22.0634C136.185 21.015 136.381 19.8867 136.381 18.6786C136.381 17.4705 136.201 16.332 135.841 15.2618ZM130.87 20.379C130.668 20.8989 130.392 21.349 130.043 21.7309C129.694 22.1113 129.275 22.4134 128.789 22.6355C128.301 22.8592 127.761 22.9695 127.168 22.9695C126.469 22.9695 125.796 22.7633 125.15 22.3495C124.504 21.9371 124.012 21.3708 123.673 20.6491V17.1525C124.033 16.3262 124.546 15.6379 125.214 15.0861C125.882 14.5358 126.616 14.2599 127.422 14.2599C127.951 14.2599 128.449 14.3775 128.915 14.6099C129.381 14.8436 129.778 15.1617 130.106 15.5639C130.434 15.9661 130.694 16.438 130.886 16.9782C131.076 17.5184 131.17 18.0862 131.17 18.6786C131.17 19.2711 131.07 19.8606 130.87 20.379Z" fill="#FAFAFA"/>
</svg>
