<?xml version="1.0" encoding="UTF-8"?>
<svg id="Livello_1" xmlns="http://www.w3.org/2000/svg" version="1.1" viewBox="0 0 1000 170.5">
  <!-- Generator: Adobe Illustrator 29.6.1, SVG Export Plug-In . SVG Version: 2.1.1 Build 9)  -->
  <path d="M76.6.5h30.5l19.2,56.4L145.5.5h30.7l-29.1,77.6,21.6,54.5L217,0h36l-69.4,170.5h-27.9l-29.5-71.5-29.5,71.5h-27.9L0,0h35.5l48.5,132.5,21.1-54.5L76.6.5Z"/>
  <path d="M389,141.4v29.1h-118.4V0h116.2v29.1h-83.1v41.1h71.8v26.9h-71.8v44.4h85.2Z"/>
  <path d="M552.2,126.5c0,7.2-1.4,13.5-4.3,19-2.9,5.4-6.8,10-11.9,13.7-5,3.7-10.9,6.5-17.5,8.4-6.6,1.9-13.7,2.9-21.2,2.9h-82.4V0h91.2c5.9,0,11.3,1.3,16.1,3.8,4.8,2.6,8.9,5.9,12.2,10,3.4,4.1,6,8.7,7.8,13.9,1.8,5.2,2.8,10.4,2.8,15.7,0,8.3-2.1,16.1-6.2,23.4-4.2,7.3-10.2,12.7-18.2,16.2,9.8,2.9,17.5,8,23.2,15.5,5.7,7.4,8.5,16.8,8.5,28ZM448,28.3v43h44.2c5.6,0,10.4-1.9,14.3-5.8,3.9-3.8,5.9-9.1,5.9-15.8s-1.8-11.8-5.4-15.6c-3.6-3.8-8-5.8-13.3-5.8h-45.6ZM518.8,120.3c0-3-.5-6-1.6-8.8-1-2.8-2.4-5.2-4.2-7.3-1.8-2.1-3.8-3.7-6.2-4.9s-5-1.8-7.9-1.8h-50.9v44.9h49.2c3,0,5.9-.6,8.5-1.7,2.6-1.1,4.9-2.7,6.8-4.7,1.9-2,3.4-4.4,4.6-7.1,1.1-2.7,1.7-5.6,1.7-8.6Z"/>
  <path d="M715.5,126.5c0,7.2-1.4,13.5-4.3,19-2.9,5.4-6.8,10-11.9,13.7-5,3.7-10.9,6.5-17.5,8.4-6.6,1.9-13.7,2.9-21.2,2.9h-82.4V0h91.2c5.9,0,11.3,1.3,16.1,3.8,4.8,2.6,8.9,5.9,12.2,10,3.4,4.1,6,8.7,7.8,13.9,1.8,5.2,2.8,10.4,2.8,15.7,0,8.3-2.1,16.1-6.2,23.4-4.2,7.3-10.2,12.7-18.2,16.2,9.8,2.9,17.5,8,23.2,15.5,5.7,7.4,8.5,16.8,8.5,28ZM611.3,28.3v43h44.2c5.6,0,10.4-1.9,14.3-5.8,3.9-3.8,5.9-9.1,5.9-15.8s-1.8-11.8-5.4-15.6c-3.6-3.8-8-5.8-13.3-5.8h-45.6ZM682.1,120.3c0-3-.5-6-1.6-8.8-1-2.8-2.4-5.2-4.2-7.3-1.8-2.1-3.8-3.7-6.2-4.9s-5-1.8-7.9-1.8h-50.9v44.9h49.2c3,0,5.9-.6,8.5-1.7,2.6-1.1,4.9-2.7,6.8-4.7,1.9-2,3.4-4.4,4.6-7.1,1.1-2.7,1.7-5.6,1.7-8.6Z"/>
  <path d="M741.4,170.5V0h33.1v141.4h86.9v29.1h-120Z"/>
  <path d="M1000,141.4v29.1h-118.4V0h116.2v29.1h-83.1v41.1h71.8v26.9h-71.8v44.4h85.2Z"/>
</svg>