<?xml version="1.0" encoding="UTF-8"?>
<svg id="Livello_1" xmlns="http://www.w3.org/2000/svg" version="1.1" viewBox="0 0 57.3 30.6">
  <!-- Generator: Adobe Illustrator 29.6.1, SVG Export Plug-In . SVG Version: 2.1.1 Build 9)  -->
  <defs>
    <style>
      .st0 {
        fill: #0b0b0b;
      }
    </style>
  </defs>
  <path class="st0" d="M7.1.6h0C3.4.6.3,3.6.3,7.4H.3c0,3.8,3,6.8,6.7,6.8h0c3.7,0,6.7-3,6.7-6.8h0c0-3.8-3-6.8-6.7-6.8Z"/>
  <path class="st0" d="M7.1.6h0C3.4.6.3,3.6.3,7.4H.3c0,3.8,3,6.8,6.7,6.8h0c3.7,0,6.7-3,6.7-6.8h0c0-3.8-3-6.8-6.7-6.8Z"/>
  <path class="st0" d="M33.6,11.6l-16.3,16.4c-1.2,1.2-2.8,1.9-4.5,1.9-5.7,0-8.6-7-4.5-11.1l4.6-4.6,1.5-1.5L24.5,2.4c1.2-1.2,2.8-1.9,4.5-1.9,5.7,0,8.6,7,4.5,11.1Z"/>
  <path class="st0" d="M33.6,11.6l-16.3,16.4c-1.2,1.2-2.8,1.9-4.5,1.9-5.7,0-8.6-7-4.5-11.1l4.6-4.6,1.5-1.5L24.5,2.4c1.2-1.2,2.8-1.9,4.5-1.9,5.7,0,8.6,7,4.5,11.1Z"/>
  <path class="st0" d="M55.2,11.6l-16.3,16.4c-1.2,1.2-2.8,1.9-4.5,1.9-5.7,0-8.6-7-4.5-11.1l4.6-4.6,1.5-1.5,10.2-10.2c1.2-1.2,2.8-1.9,4.5-1.9,5.7,0,8.6,7,4.5,11.1Z"/>
  <path class="st0" d="M55.2,11.6l-16.3,16.4c-1.2,1.2-2.8,1.9-4.5,1.9-5.7,0-8.6-7-4.5-11.1l4.6-4.6,1.5-1.5,10.2-10.2c1.2-1.2,2.8-1.9,4.5-1.9,5.7,0,8.6,7,4.5,11.1Z"/>
</svg>