<svg width="85" height="50" viewBox="0 0 85 50" fill="none" xmlns="http://www.w3.org/2000/svg">
<path fill-rule="evenodd" clip-rule="evenodd" d="M35.632 45.4383C35.8823 46.0606 36.0613 47.071 36.1688 48.4696L37.709 48.4716C37.5374 45.4416 37.4558 40.0815 37.4654 32.3928L35.9215 32.3909C35.5487 35.3615 35.1648 37.5592 34.7719 38.9836C34.3772 40.4141 33.72 41.7395 32.8027 42.9625C31.6206 44.6638 29.9706 45.9392 27.852 46.7871C25.7314 47.6366 23.5585 48.0591 21.3313 48.0562C18.4267 48.0525 15.8286 47.1441 13.5376 45.3276C11.2462 43.5126 9.44924 40.8562 8.14258 37.362C7.56883 35.825 7.12187 34.1555 6.8016 32.3535L0.208393 32.3451C0.644837 34.4317 1.28573 36.3573 2.13073 38.1221C3.88367 41.7826 6.35945 44.5755 9.55429 46.5024C12.7522 48.4294 16.4813 49.3956 20.7406 49.401C22.5511 49.4033 24.1774 49.2134 25.6206 48.8311C27.0612 48.4507 28.345 47.962 29.4697 47.3638C30.5956 46.7642 31.8253 45.9964 33.1588 45.0586C33.7264 44.6888 34.186 44.5034 34.5361 44.5038C35.0158 44.5045 35.3803 44.8165 35.632 45.4383ZM0 19.1333C0.44536 16.5537 1.19435 14.1641 2.24705 11.965C4.06398 8.1674 6.59022 5.22286 9.82272 3.13138C13.0582 1.03839 16.7397 -0.0052709 20.8689 2.00155e-05C23.5316 0.00343457 25.8067 0.388574 27.6946 1.15469C29.5839 1.92193 31.423 2.99649 33.211 4.37381C33.6917 4.76875 34.1274 4.9659 34.5202 4.9664C35.4374 4.96758 36.0073 3.63449 36.2296 0.970538L37.7699 0.97251C37.5904 3.87735 37.4953 9.01968 37.4859 16.3992L35.9467 16.3972C35.6215 14.3896 35.3237 12.8286 35.0533 11.7114C34.7818 10.5977 34.4594 9.65359 34.0899 8.87771C33.7215 8.10333 33.2204 7.2993 32.5879 6.46863C31.2344 4.72136 29.5215 3.40766 27.4493 2.53243C25.3756 1.65681 23.1358 1.21689 20.7343 1.21382C17.8296 1.2101 15.2851 2.16674 13.1001 4.08528C10.9116 6.00532 9.21591 8.74412 8.01061 12.3017C7.30855 14.3739 6.81018 16.6538 6.51519 19.1416L0 19.1333ZM55.5089 19.2044L62.7313 0.678229L63.8111 0.679614L70.9693 19.2242L64.6086 19.2161L60.854 9.15888L56.9748 19.2063L55.5089 19.2044ZM76.0715 32.4423L80.1038 42.8889C81.1933 45.6653 82.7419 47.0983 84.7519 47.1878L84.7502 48.5318C82.9145 48.3979 80.512 48.3287 77.5419 48.3249C73.72 48.32 70.8591 48.3825 68.9584 48.5116L68.9601 47.1676C70.6645 47.1036 71.8818 46.8984 72.6131 46.5492C73.3462 46.2016 73.7118 45.5805 73.713 44.6852C73.714 43.9204 73.4537 42.8728 72.931 41.5387L69.5298 32.4339L76.0715 32.4423ZM51.8947 32.4113L49.8755 37.6106C48.9762 39.882 48.5266 41.7158 48.5248 43.1127C48.523 44.532 48.9969 45.5488 49.9473 46.1599C50.8947 46.7739 52.3639 47.1036 54.3513 47.1489L54.3496 48.4929C51.7952 48.358 49.218 48.2886 46.6188 48.2852C44.609 48.2827 42.9386 48.3467 41.6076 48.4766L41.6094 47.1325C43.8372 46.6333 45.5969 44.6923 46.8908 41.3103L50.3609 32.4094L51.8947 32.4113Z" fill="#E2DEDC"/>
<path d="M19.607 22.1386C19.6086 20.8229 20.3304 19.9275 21.3686 19.9288C21.9829 19.9296 22.4418 20.2534 22.6201 20.713C22.9743 20.7135 23.1933 20.64 23.1936 20.4272C23.194 20.0816 22.5479 19.502 21.3975 19.5005C19.8349 19.4985 18.8497 20.6182 18.8477 22.2484C18.8457 23.783 19.7823 24.8356 21.3313 24.8376C22.1732 24.8386 22.9018 24.4853 23.2495 23.9981L23.2507 23.1047C23.2511 22.7505 23.2369 22.3591 23.1972 22.0445L22.4396 22.0436C22.0853 22.0431 21.7114 22.0559 21.3941 22.0952C21.3939 22.2517 21.4334 22.4188 21.4703 22.5149C21.8749 22.4708 22.1539 22.4655 22.5131 22.466C22.5362 22.7257 22.5435 22.9533 22.5432 23.2176L22.542 24.1242C22.3157 24.2687 21.97 24.41 21.3764 24.4093C20.3099 24.4079 19.6052 23.4826 19.607 22.1386Z" fill="#E2DEDC"/>
<path d="M26.0989 24.3699C26.0983 24.7672 26.234 24.8355 26.3935 24.8357C26.5353 24.8358 26.7629 24.8078 26.9267 24.7312C26.8221 24.6411 26.8046 24.4623 26.805 24.161L26.8096 20.5606C26.81 20.209 26.7973 19.831 26.7606 19.5164C26.4684 19.516 26.1599 19.5526 26.0312 19.5922C26.0912 20.0206 26.1041 20.2985 26.1036 20.6735L26.0989 24.3699Z" fill="#E2DEDC"/>
<path d="M33.3036 24.3791C33.4585 24.7766 33.6327 24.8449 33.7995 24.8451C33.9499 24.8453 34.1821 24.8172 34.3149 24.7407C34.1823 24.6505 34.0922 24.4776 33.9731 24.1701L32.5569 20.568C32.4126 20.2162 32.2626 19.847 32.108 19.5322C31.7991 19.5318 31.5068 19.5681 31.3843 19.599C31.2787 20.0094 31.1511 20.3873 31.0313 20.6798L29.5691 24.3743C29.5065 24.5398 29.4845 24.6445 29.4844 24.7125C29.4842 24.8112 29.5523 24.8397 29.6332 24.8398C29.756 24.8399 29.9508 24.8118 30.1165 24.7353C30.1166 24.6158 30.1626 24.4355 30.2677 24.1653L30.6057 23.2694L32.868 23.2723L33.3036 24.3791ZM31.857 20.6809L32.7049 22.8528L30.7729 22.8503L31.7289 20.3646C31.7745 20.4622 31.8114 20.567 31.857 20.6809Z" fill="#E2DEDC"/>
<path d="M37.0519 22.1611C37.0536 20.8454 37.7697 19.95 38.79 19.9513C39.4003 19.952 39.8501 20.2759 40.0283 20.7354C40.3826 20.7359 40.6012 20.6625 40.6015 20.4496C40.6019 20.1041 39.9649 19.5244 38.8216 19.523C37.2742 19.521 36.2951 20.6407 36.293 22.2709C36.291 23.8055 37.2216 24.8581 38.738 24.86C39.5724 24.8611 40.2965 24.5078 40.634 24.0205L40.5203 23.9527C40.47 23.9231 40.4096 23.892 40.3653 23.892C40.1321 23.8917 39.9276 24.4332 38.7934 24.4317C37.7461 24.4304 37.0502 23.5051 37.0519 22.1611Z" fill="#E2DEDC"/>
<path d="M43.7788 22.1699C43.7805 20.8542 44.4962 19.9587 45.5166 19.96C46.1268 19.9608 46.5767 20.2847 46.7549 20.7442C47.1092 20.7447 47.3278 20.6712 47.328 20.4584C47.3285 20.1128 46.6884 19.5332 45.5497 19.5317C44.0007 19.5298 43.0216 20.6495 43.0195 22.2797C43.0176 23.8143 43.9482 24.8669 45.4661 24.8688C46.299 24.8699 47.023 24.5165 47.3605 24.0293L47.2468 23.9615C47.1966 23.9319 47.1346 23.9008 47.0889 23.9008C46.8556 23.9005 46.6541 24.442 45.5199 24.4405C44.4742 24.4392 43.7771 23.5139 43.7788 22.1699Z" fill="#E2DEDC"/>
<path d="M53.398 24.4047C53.3975 24.802 53.5305 24.8702 53.6896 24.8704C53.8314 24.8706 54.0662 24.8426 54.2304 24.766C54.1182 24.6759 54.1037 24.4971 54.1041 24.1957L54.1087 20.5954C54.1092 20.2438 54.0949 19.8748 54.0571 19.5602C53.7736 19.5598 53.4779 19.5961 53.3508 19.627C53.3949 20.0554 53.4032 20.3333 53.4027 20.7083L53.4011 21.9548L50.7562 21.9514L50.7579 20.5911C50.7584 20.2395 50.7441 19.8705 50.7044 19.5559C50.4046 19.5555 50.1033 19.5918 49.9766 19.6227C50.038 20.0511 50.0524 20.329 50.0519 20.704L50.0472 24.4004C50.0467 24.7977 50.1736 24.8659 50.3317 24.8661C50.4598 24.8663 50.6757 24.8382 50.8339 24.7617C50.7599 24.6716 50.7529 24.4928 50.7533 24.1914L50.7556 22.3661L53.4006 22.3695L53.398 24.4047Z" fill="#E2DEDC"/>
<path d="M57.0524 24.4094C57.0518 24.8068 57.1875 24.875 57.3455 24.8752C57.4873 24.8754 57.7149 24.8473 57.8787 24.7708C57.7741 24.6807 57.7581 24.5018 57.7585 24.2005L57.7631 20.6002C57.7635 20.2486 57.7493 19.8705 57.7126 19.5559C57.4219 19.5555 57.1115 19.5922 56.9844 19.6317C57.0432 20.0602 57.0576 20.338 57.0571 20.7131L57.0524 24.4094Z" fill="#E2DEDC"/>
<path d="M11.6717 31.1463C11.8308 31.5423 12.0034 31.6102 12.1675 31.6104C12.318 31.6106 12.5502 31.5799 12.686 31.5064C12.5504 31.4162 12.4602 31.2433 12.3412 30.9343L10.925 27.3337C10.7837 26.9789 10.6337 26.6127 10.4761 26.2949C10.1672 26.2945 9.87489 26.3339 9.75501 26.3617C9.64672 26.7767 9.51921 27.15 9.39936 27.4455L7.93681 31.1415C7.87762 31.3051 7.85556 31.4102 7.85547 31.4779C7.85535 31.5739 7.92298 31.605 8.00427 31.6051C8.12373 31.6053 8.32037 31.5745 8.48454 31.501C8.4847 31.38 8.53067 31.2013 8.63574 30.9296L8.97639 30.0366L11.2361 30.0395L11.6717 31.1463ZM10.2277 27.4466L11.0725 29.62L9.14101 29.6176L10.0984 27.1288C10.1425 27.2276 10.1821 27.3327 10.2277 27.4466Z" fill="#E2DEDC"/>
<path d="M15.1508 29.5704C15.1492 30.7961 15.9901 31.6244 17.2381 31.626C18.5451 31.6277 19.4309 30.7559 19.4325 29.4799L19.4352 27.3446C19.4357 26.99 19.4214 26.624 19.3863 26.3063C19.0997 26.306 18.8074 26.3453 18.6788 26.3731C18.724 26.8015 18.7293 27.0805 18.7289 27.4575L18.7262 29.544C18.7249 30.5304 18.1452 31.1958 17.2976 31.1947C16.4409 31.1936 15.8558 30.518 15.8571 29.5256L15.8599 27.34C15.8603 26.9854 15.846 26.6194 15.8064 26.3018C15.5066 26.3014 15.2052 26.3407 15.0781 26.3685C15.1396 26.7969 15.154 27.076 15.1535 27.4529L15.1508 29.5704Z" fill="#E2DEDC"/>
<path d="M25.9102 26.7602C26.3 26.7606 26.3697 26.6783 26.3698 26.5702C26.3699 26.4878 26.3463 26.3547 26.2697 26.2468C26.1796 26.3235 25.9921 26.338 25.6923 26.3376L23.0326 26.3342C22.681 26.3337 22.3029 26.3495 21.9883 26.3861C21.9881 26.5427 22.0245 26.7094 22.0615 26.8055C22.4838 26.7618 22.7674 26.7561 23.1454 26.7566L23.8055 26.7575C23.8275 27.0044 23.8273 27.2081 23.827 27.4637L23.8222 31.1616C23.8217 31.5574 23.9634 31.6253 24.1229 31.6255C24.2647 31.6256 24.4908 31.5949 24.6561 31.5214C24.5515 31.4313 24.528 31.2494 24.5283 30.9496L24.533 27.3508C24.5332 27.147 24.5263 26.9535 24.5205 26.7584L25.9102 26.7602Z" fill="#E2DEDC"/>
<path d="M28.4258 29.0321C28.4238 30.5799 29.3778 31.6416 30.7854 31.6434C32.256 31.6453 33.2559 30.5328 33.258 28.9188C33.26 27.371 32.3086 26.3097 30.8969 26.3079C29.4304 26.306 28.4279 27.4151 28.4258 29.0321ZM29.1862 28.9563C29.1879 27.6346 29.8495 26.7345 30.8283 26.7357C31.8207 26.737 32.502 27.6536 32.5003 28.9915C32.4986 30.3133 31.8373 31.2133 30.8509 31.2121C29.8612 31.2108 29.1845 30.2943 29.1862 28.9563Z" fill="#E2DEDC"/>
<path d="M40.9928 31.1838C41.0456 31.5797 41.202 31.6476 41.36 31.6478C41.5105 31.648 41.7438 31.6173 41.8932 31.5437C41.775 31.4536 41.7385 31.3265 41.6841 30.9718L41.1867 27.3724C41.1338 27.0487 41.0753 26.7031 40.9842 26.3339C40.6844 26.3336 40.4141 26.3419 40.2413 26.364C40.1417 26.7922 40.0589 27.0783 39.9166 27.4755L38.7248 30.8263L37.4301 27.1857C37.3314 26.9081 37.19 26.6081 37.0232 26.3289C36.6939 26.3284 36.4224 26.3678 36.2893 26.4047C36.2801 26.802 36.2487 27.1252 36.2112 27.4798C36.2112 27.4798 35.6643 31.1989 35.6641 31.363C35.6638 31.5875 35.7628 31.6406 35.8822 31.6407C35.996 31.6409 36.1912 31.6101 36.3565 31.5366C36.296 31.4923 36.2742 31.3917 36.2743 31.3048C36.2744 31.2367 36.2893 31.1142 36.3058 30.9649L36.7843 27.5085L38.1542 31.1801C38.2955 31.5629 38.4315 31.644 38.6043 31.6442C38.7695 31.6444 38.9113 31.6314 39.0475 31.5548C39.0476 31.4648 39.1069 31.2464 39.2063 30.9686L40.4731 27.5132L40.9928 31.1838Z" fill="#E2DEDC"/>
<path d="M44.168 29.0523C44.166 30.6001 45.1204 31.6618 46.5249 31.6636C47.9986 31.6655 48.9985 30.553 49.0006 28.9391C49.0025 27.3913 48.0512 26.3299 46.6365 26.3281C45.173 26.3263 44.17 27.4353 44.168 29.0523ZM44.9287 28.9766C44.9304 27.6548 45.5917 26.7548 46.5694 26.756C47.5603 26.7573 48.2445 27.6738 48.2428 29.0118C48.2411 30.3335 47.5768 31.2336 46.5931 31.2323C45.6007 31.2311 44.927 30.3145 44.9287 28.9766Z" fill="#E2DEDC"/>
<path d="M55.2153 27.6679C55.2163 26.9031 54.6219 26.3749 53.7372 26.3738L52.3845 26.3721C52.0847 26.3717 51.7833 26.4114 51.6562 26.4392C51.7147 26.8676 51.7291 27.1451 51.7286 27.5217L51.7238 31.2626C51.7236 31.4207 51.7544 31.5859 51.7913 31.685C52.2197 31.6398 52.4972 31.6311 52.8738 31.6316L53.7675 31.6327C54.7656 31.634 55.4533 31.0515 55.4544 30.1862C55.4552 29.5393 55.0555 29.0428 54.4327 28.8616C54.9142 28.6467 55.2146 28.2248 55.2153 27.6679ZM52.4304 30.9857L52.4328 29.0999L53.629 29.1014C54.2581 29.1022 54.6946 29.5531 54.6938 30.1765C54.693 30.7924 54.2701 31.2141 53.6497 31.2133L52.7624 31.2122C52.6486 31.212 52.5348 31.2119 52.4301 31.2205C52.4241 31.1528 52.4303 31.076 52.4304 30.9857ZM53.5157 28.6862L52.4333 28.6848L52.435 27.4088C52.4352 27.205 52.4294 26.9956 52.421 26.7944L53.4958 26.7958C54.066 26.7965 54.4568 27.1857 54.456 27.7498C54.4553 28.3138 54.0798 28.6869 53.5157 28.6862Z" fill="#E2DEDC"/>
<path d="M58.1813 31.2061C58.1807 31.6019 58.3164 31.6698 58.4744 31.67C58.6162 31.6701 58.8438 31.6394 59.0076 31.5659C58.903 31.4758 58.89 31.2939 58.8904 30.9941L58.895 27.3953C58.8955 27.0407 58.8782 26.6671 58.8415 26.3525C58.5508 26.3522 58.2404 26.3873 58.1133 26.4238C58.1721 26.8523 58.1865 27.1313 58.186 27.5082L58.1813 31.2061Z" fill="#E2DEDC"/>
<path d="M64.8602 31.6471C65.2602 31.6476 65.3197 31.5668 65.3198 31.4692C65.3199 31.3789 65.2978 31.2431 65.2242 31.1455C65.1337 31.2195 64.9522 31.2279 64.6509 31.2276L62.8699 31.2253C62.7576 31.2251 62.6528 31.225 62.539 31.2335L62.544 27.4C62.5444 27.0453 62.5301 26.6718 62.4935 26.3572C62.2028 26.3568 61.8927 26.3919 61.7656 26.4285C61.824 26.8569 61.8384 27.1359 61.8379 27.5128L61.8331 31.2757C61.8329 31.4338 61.8637 31.599 61.9006 31.6981C62.3287 31.6529 62.6066 31.6442 62.9831 31.6447L64.8602 31.6471Z" fill="#E2DEDC"/>
<path d="M67.9937 31.2185C67.9932 31.6144 68.1289 31.6822 68.2884 31.6824C68.4302 31.6826 68.6563 31.6519 68.8216 31.5784C68.717 31.4883 68.6995 31.3064 68.6999 31.0066L68.7045 27.4078C68.7049 27.0531 68.6907 26.6796 68.654 26.365C68.3633 26.3646 68.0529 26.3998 67.9258 26.4363C67.9846 26.8647 67.999 27.1437 67.9985 27.5207L67.9937 31.2185Z" fill="#E2DEDC"/>
</svg>
