<svg width="81" height="27" viewBox="0 0 81 27" fill="none" xmlns="http://www.w3.org/2000/svg">
<path d="M20.9108 26.1995H14.4671C14.392 26.1995 14.3228 26.159 14.287 26.0934L10.5208 19.2824C9.71933 17.8321 10.7676 16.054 12.4242 16.054H16.1356C16.2143 16.054 16.2859 16.0981 16.3204 16.1696L21.0957 25.9038C21.1625 26.0409 21.0635 26.1995 20.9108 26.1995Z" fill="#E2DEDC"/>
<path d="M63.0248 13.7568C62.9902 13.826 62.9187 13.8701 62.8412 13.8701L11.1592 13.8618C8.90992 13.8618 6.83954 12.6405 5.75307 10.6727L0.0261313 0.305309C-0.050196 0.168158 0.049983 0 0.206216 0H8.2194C8.29811 0 8.36967 0.0441221 8.40425 0.114486L11.4943 6.39361C12.2135 7.85337 13.6744 8.79673 15.3011 8.85159L64.029 11.0615C64.1781 11.0687 64.2699 11.2261 64.2031 11.3597L63.026 13.758L63.0248 13.7568Z" fill="#E2DEDC"/>
<path d="M80.6666 0.305309L66.4065 26.0932C66.3707 26.1588 66.3015 26.1994 66.2264 26.1994H59.8232C59.6706 26.1994 59.5716 26.0396 59.6384 25.9024L72.3302 0.114486C72.3648 0.0441221 72.4363 0 72.5151 0H80.4865C80.6427 0 80.7429 0.168158 80.6666 0.305309Z" fill="#E2DEDC"/>
</svg>
