<svg width="69" height="58" viewBox="0 0 69 58" fill="none" xmlns="http://www.w3.org/2000/svg">
<g filter="url(#filter0_d_2294_727)">
<path d="M64.9615 23.4451V41.8712C64.9615 41.8712 64.8526 49.6931 58.6448 49.7615C52.4152 49.8299 50.6508 45.6339 51.1736 40.6397C51.3043 39.3399 51.9577 36.4665 52.8508 32.9546L52.8944 32.795C54.7676 25.4291 57.6864 15.2584 59.0586 10.515V10.4466C59.4943 8.96431 59.7774 8.00652 59.821 7.8697C59.821 7.91531 59.7775 7.96092 59.7339 8.02933C59.821 7.73287 59.8428 7.43641 59.8428 7.13995C59.8428 5.54364 58.8408 4.06135 57.2943 3.58246C55.4211 3.01235 53.4607 4.15257 52.9161 6.11375L45.4014 33.2967L42.744 42.3044C42.744 42.3044 41.2193 49.1458 36.4055 49.9439C31.5699 50.7193 28.5858 43.2166 27.9977 41.9852C27.3878 40.7309 19.873 25.1555 19.873 25.1555C19.873 25.1555 18.0216 20.8682 17.978 16.5126C17.9127 12.1569 19.1325 7.75568 18.6968 6.27339C18.0651 4.24379 16.6929 3.10356 13.4038 3.14917C10.1147 3.19478 7.60984 6.95752 8.76428 11.45C9.91872 15.9425 18.3265 37.3331 18.3265 37.3331C18.3265 37.3331 21.5938 45.8619 17.1285 48.5757C12.685 51.2666 6.52074 50.058 5.08314 43.3763C3.64553 36.6945 4.05937 28.1885 4.05937 28.1885C4.05937 28.1885 3.58018 12.3622 5.34451 7.45922C7.10884 2.53345 9.83157 -0.727583 17.4552 0.161791C25.1007 1.02836 29.0868 15.6688 29.0868 15.6688L36.95 35.3491C36.95 35.3491 39.15 38.7926 41.3935 36.1244C43.6588 33.4563 40.1955 21.8488 39.7817 15.3952C39.3678 8.96431 43.8549 2.64747 47.841 1.21079C52.328 -0.385522 58.6666 -1.04685 61.9339 3.37721C65.5714 8.32578 64.9615 23.468 64.9615 23.468V23.4451Z" fill="#E2DEDC"/>
</g>
<defs>
<filter id="filter0_d_2294_727" x="0" y="0" width="69" height="58" filterUnits="userSpaceOnUse" color-interpolation-filters="sRGB">
<feFlood flood-opacity="0" result="BackgroundImageFix"/>
<feColorMatrix in="SourceAlpha" type="matrix" values="0 0 0 0 0 0 0 0 0 0 0 0 0 0 0 0 0 0 127 0" result="hardAlpha"/>
<feOffset dy="4"/>
<feGaussianBlur stdDeviation="2"/>
<feComposite in2="hardAlpha" operator="out"/>
<feColorMatrix type="matrix" values="0 0 0 0 0 0 0 0 0 0 0 0 0 0 0 0 0 0 0.25 0"/>
<feBlend mode="normal" in2="BackgroundImageFix" result="effect1_dropShadow_2294_727"/>
<feBlend mode="normal" in="SourceGraphic" in2="effect1_dropShadow_2294_727" result="shape"/>
</filter>
</defs>
</svg>
