<svg width="107" height="48" viewBox="0 0 107 48" fill="none" xmlns="http://www.w3.org/2000/svg">
<path d="M54.6475 0C57.6861 7.75688e-05 60.1928 0.817299 62.0635 2.54297C63.9825 4.27493 64.9217 6.59067 64.9219 9.39453C64.9219 11.7706 64.2918 14.0889 63.0576 16.3369C61.8506 18.5353 60.304 20.6807 58.4248 22.7734C56.6134 24.8372 54.7176 26.8372 52.7383 28.7744C50.7844 30.6867 49.0417 32.513 47.5098 34.252L47.5088 34.2539L40.6055 42.0361L40.6035 42.0371C40.6001 42.0409 40.598 42.0461 40.5947 42.0498H47.6182C49.1945 42.0498 50.3987 41.8655 51.2695 41.5391L51.2812 41.5352C52.1703 41.215 52.9429 40.6621 53.6045 39.8535L53.6074 39.8516C54.3319 38.9745 55.09 37.6724 55.8691 35.9092V35.9072L57.125 33.083L57.1279 33.0762C57.2757 32.7512 57.489 32.4461 57.7949 32.2217C58.1105 31.9904 58.4743 31.8819 58.8516 31.8818C59.3196 31.8818 59.9123 32.0312 60.2324 32.6074C60.5069 33.1023 60.4289 33.6695 60.3086 34.1025L60.3057 34.1133L56.916 45.7227C56.7435 46.3438 56.3901 46.8904 55.7842 47.1934C55.3061 47.4322 54.7711 47.5351 54.208 47.5352H30.0469L19.0615 32.4297L8.07715 47.5352H0.442383L15.3008 27.4541L0 6.8252H7.6377L19.0615 22.4805L30.4863 6.8252H38.0684L22.7676 27.4541L34.7402 43.6328L44.8984 31.9893C46.2366 30.442 47.7001 28.7481 49.2891 26.9082L49.29 26.9072C50.9015 25.0478 52.4095 23.1049 53.8145 21.0801L53.8174 21.0771C55.2531 19.0261 56.4162 16.983 57.3115 14.9482L57.3154 14.9414C58.2346 12.9031 58.6826 10.9305 58.6826 9.01855C58.6825 7.38394 58.2301 6.22537 57.4277 5.42285L57.4141 5.40918C56.6683 4.63178 55.4867 4.16797 53.7051 4.16797C52.1203 4.16814 50.5368 4.71743 48.9414 5.88477L48.9395 5.88672C47.4612 6.95845 46.1582 8.86882 45.1006 11.7539L45.1016 11.7559C44.9663 12.1345 44.7631 12.4986 44.4502 12.7725C44.1203 13.0611 43.7184 13.206 43.2881 13.2061C43.0173 13.2061 42.7314 13.1467 42.4688 12.9893C42.2039 12.8303 42.0153 12.6027 41.8906 12.3535C41.6273 11.8268 41.6765 11.258 41.8438 10.7559L41.8477 10.7432L42.1982 9.79785C43.0397 7.64684 44.0619 5.8697 45.2803 4.49414C46.6437 2.91315 48.1472 1.75808 49.7979 1.07031C51.3975 0.362089 53.0163 2.82321e-05 54.6475 0ZM72.5195 7.2666L85.8818 31.2354L99.5439 6.8252H106.071V47.5352H99.4082V19.8184L87.8125 40.5068H84.0059L72.3535 19.8057V47.5352H65.6904V6.8252H72.2725L72.5195 7.2666ZM7.64062 46.6748L2.14844 46.6758H7.63965L7.64062 46.6748ZM19.0625 30.9688L30.4834 46.6758H54.208L54.209 46.6748H30.4854L19.0625 30.9688ZM66.5518 46.6748V46.6758L71.4932 46.6748H66.5518ZM100.269 16.5273V46.6758L105.211 46.6748H100.27V16.5264L100.269 16.5273ZM54.7529 46.6299C54.767 46.6274 54.781 46.6247 54.7949 46.6221C54.781 46.6247 54.767 46.6275 54.7529 46.6299ZM55.2002 46.5098C55.2035 46.5085 55.2067 46.5071 55.21 46.5059C55.2067 46.5071 55.2035 46.5085 55.2002 46.5098ZM34.9873 44.6514C34.9556 44.6885 34.9252 44.7254 34.8955 44.7617C34.9252 44.7255 34.9555 44.6885 34.9873 44.6514ZM59.3545 11.249C59.1325 12.5802 58.7144 13.9285 58.0986 15.2939C57.1782 17.3859 55.9858 19.4784 54.5215 21.5703C53.099 23.6203 51.572 25.5871 49.9404 27.4697C48.3506 29.3106 46.8857 31.0057 45.5469 32.5537L35.2539 44.3535C35.2296 44.3794 35.207 44.4062 35.1836 44.4316C35.2074 44.4058 35.2312 44.3788 35.2559 44.3525L45.5479 32.5537C46.8867 31.0057 48.3515 29.3116 49.9414 27.4707C51.5731 25.588 53.1 23.6213 54.5225 21.5713C55.9868 19.4793 57.1791 17.3869 58.0996 15.2949C58.7155 13.9293 59.1328 12.5804 59.3545 11.249ZM51.5723 42.3438C50.5681 42.7203 49.2499 42.9092 47.6182 42.9092H47.6191C49.2509 42.9092 50.5691 42.7213 51.5732 42.3447C51.6351 42.3225 51.695 42.2957 51.7559 42.2715C51.6949 42.2957 51.6343 42.3214 51.5723 42.3438ZM53.8516 40.8633C53.9952 40.7164 54.1371 40.5636 54.2715 40.3994C54.318 40.3432 54.3617 40.2827 54.4082 40.2236C54.3615 40.283 54.3172 40.3429 54.2705 40.3994L53.9814 40.7314C53.9393 40.7769 53.8945 40.8194 53.8516 40.8633ZM71.4941 16.5273L84.5078 39.6455H84.5088L71.4941 16.5264V16.5273ZM56.2314 37.1709C56.3721 36.8788 56.5156 36.5751 56.6562 36.2568L57.9121 33.4326C58.1212 32.9727 58.4345 32.7424 58.8525 32.7422H58.8516C58.4858 32.7424 58.1999 32.9183 57.9941 33.2705C57.9648 33.3208 57.9372 33.3752 57.9111 33.4326L56.6553 36.2568L56.3574 36.9121C56.3162 36.9999 56.2726 37.0854 56.2314 37.1709ZM59.1123 32.7695C59.1415 32.7763 59.169 32.7846 59.1953 32.7939C59.169 32.7846 59.1415 32.7763 59.1123 32.7695ZM58.8604 32.7422C58.9266 32.7425 58.9881 32.7471 59.0449 32.7559C58.9881 32.747 58.9266 32.7426 58.8604 32.7422ZM19.0625 23.9395L19.0635 23.9404L30.9248 7.68555H30.9238L19.0625 23.9395ZM57.7861 22.1982C57.6174 22.3905 57.4476 22.5822 57.2773 22.7734C57.4474 22.5824 57.6175 22.3913 57.7861 22.1992C57.9732 21.9909 58.1548 21.7805 58.335 21.5713C58.155 21.7803 57.973 21.9901 57.7861 22.1982ZM43.0859 12.3213C43.1168 12.3289 43.1492 12.335 43.1826 12.3389L43.2881 12.3447V12.3438C43.2155 12.3437 43.1482 12.3368 43.0859 12.3213ZM43 12.2939C43.0247 12.3038 43.0505 12.3114 43.0771 12.3184C43.0505 12.3114 43.0247 12.3038 43 12.2939ZM42.9238 12.2568C42.9402 12.2662 42.9572 12.2744 42.9746 12.2822C42.9572 12.2744 42.9402 12.2662 42.9238 12.2568ZM42.8516 12.208C42.8663 12.2196 42.8817 12.2301 42.8975 12.2402C42.8817 12.2301 42.8663 12.2196 42.8516 12.208ZM42.792 12.1543C42.8025 12.1651 42.8131 12.1757 42.8242 12.1855C42.8131 12.1757 42.8025 12.1651 42.792 12.1543ZM42.7275 12.0771C42.7388 12.0929 42.7495 12.1087 42.7617 12.123C42.7495 12.1087 42.7388 12.0929 42.7275 12.0771ZM42.6602 11.9678C42.6747 11.9968 42.6913 12.0241 42.708 12.0498C42.6914 12.0243 42.6755 11.9975 42.6611 11.9688L42.6602 11.9678ZM42.5986 11.7969C42.6025 11.8117 42.6068 11.8263 42.6113 11.8408C42.6068 11.8263 42.6024 11.8117 42.5986 11.7969ZM42.5703 11.6045C42.5716 11.6273 42.5725 11.6497 42.5752 11.6719C42.5726 11.6498 42.5715 11.6273 42.5703 11.6045ZM42.5723 11.4404C42.57 11.4683 42.5688 11.4955 42.5684 11.5225C42.5689 11.4956 42.5699 11.4682 42.5723 11.4404ZM42.5889 11.2979C42.5852 11.3183 42.5849 11.3394 42.582 11.3594C42.587 11.3242 42.5929 11.2884 42.6006 11.252L42.5889 11.2979ZM42.6602 11.0273L42.6543 11.0508C42.6568 11.0431 42.6585 11.0351 42.6611 11.0273C42.7161 10.8704 42.7716 10.7153 42.8281 10.5625L42.6602 11.0273ZM59.4697 10.3916C59.5172 9.93189 59.5439 9.47413 59.5439 9.01855C59.5439 7.60138 59.2306 6.4317 58.6074 5.50781C59.2302 6.43167 59.5429 7.60173 59.543 9.01855L59.5371 9.4043C59.5275 9.7324 59.5039 10.0614 59.4697 10.3916ZM54.3643 0.864258C52.9523 0.90353 51.5398 1.23674 50.1279 1.86426C48.6219 2.49189 47.2197 3.55839 45.9229 5.06445C44.788 6.34573 43.8144 8.02823 43 10.1104L43.1777 9.66992C43.9553 7.78984 44.8711 6.25514 45.9248 5.06543C47.2218 3.55919 48.6236 2.49186 50.1299 1.86426C51.6358 1.19503 53.1416 0.860466 54.6475 0.860352L54.3643 0.864258ZM58.1064 4.8877C58.2299 5.0166 58.3456 5.15143 58.4531 5.29297C58.3456 5.15145 58.23 5.01659 58.1064 4.8877ZM53.7061 3.30762L54.0605 3.31348C54.0723 3.31387 54.084 3.31402 54.0957 3.31445C53.9683 3.30974 53.8379 3.30762 53.7061 3.30762ZM53.5469 41.1553C53.602 41.1057 53.658 41.0568 53.7119 41.0049C53.658 41.0568 53.602 41.1057 53.5469 41.1553ZM55.8965 37.8428C55.9615 37.7174 56.0278 37.5899 56.0928 37.459C56.0278 37.5899 55.9615 37.7174 55.8965 37.8428ZM59.4326 10.7178C59.4418 10.6458 59.451 10.5739 59.459 10.502C59.451 10.5739 59.4418 10.6458 59.4326 10.7178Z" fill="#E2DEDC"/>
</svg>
